<?xml version="1.0" encoding="UTF-8"?>
<svg width="40px" height="40px" viewBox="0 0 40 40" version="1.1" xmlns="http://www.w3.org/2000/svg" xmlns:xlink="http://www.w3.org/1999/xlink">
    <title>Icon_V-Football_40</title>
    <g id="控件" stroke="none" stroke-width="1" fill="none" fill-rule="evenodd">
        <g id="形状结合" fill="#292A33">
            <path d="M20,2 C29.9411255,2 38,10.0588745 38,20 L36.5355977,20 L36.2782106,20.0051515 C35.1658074,20.0497226 34.1061649,20.3820406 33.1891028,20.944636 L31.500895,19.7190572 C30.0989454,18.7004811 29.5123129,16.8950119 30.04781,15.2469212 L30.7945969,12.9485473 C30.9277727,12.5386744 31.1228183,12.1617208 31.3673783,11.8266632 C29.8254911,9.68526638 27.6926545,7.99704649 25.2077958,7.00065132 C25.0311167,7.19668641 24.8318471,7.37518265 24.6126456,7.53444185 L22.657532,8.95491503 C21.2555824,9.97349106 19.3571996,9.97349106 17.95525,8.95491503 L16.0001364,7.53444185 C15.7160503,7.32804121 15.4654424,7.08932953 15.2508655,6.82616367 L15.2385364,6.8305194 C12.5983032,7.78528459 10.3272429,9.51142813 8.69752672,11.7367788 C8.93252121,12.0628922 9.1187263,12.4278682 9.24728091,12.8235186 L9.99406785,15.1218925 C10.529565,16.7699831 9.94293243,18.5754524 8.54098279,19.5940285 L6.5858692,21.0145016 C6.41846309,21.1361293 6.24397854,21.2432334 6.06410599,21.3358141 C6.30830648,23.9307851 7.26279556,26.3205266 8.73055479,28.3081333 C9.10945044,28.1879172 9.51032896,28.1248376 9.92234866,28.1248376 L12.339002,28.1248376 C14.071907,28.1248376 15.6077309,29.240679 16.143228,30.8887697 L16.890015,33.1871435 C16.9430807,33.3504631 16.9851271,33.5153282 17.0164526,33.6808198 C17.9770535,33.8899933 18.97568,34 20,34 C21.2502327,34 22.4621888,33.8361187 23.6155586,33.5286659 C23.6451527,33.2808686 23.6999751,33.0322654 23.7796201,32.7871435 L23.952,32.255 L26.1408353,36.9253233 C24.2245038,37.6207562 22.1565405,38 20,38 C10.0588745,38 2,29.9411255 2,20 C2,10.0588745 10.0588745,2 20,2 Z M27.4644023,24 C28.4005245,24 29.2512151,24.5442994 29.6435048,25.3942604 L32,30.5 L34.3564952,25.3942604 C34.7487849,24.5442994 35.5994755,24 36.5355977,24 L38.8707351,24 C39.091649,24 39.2707351,24.1790861 39.2707351,24.4 C39.2707351,24.45868 39.2578244,24.5166413 39.2329186,24.5697736 L33.4487343,36.9093668 C33.0736809,37.7094807 32.1210197,38.0540603 31.3209058,37.6790069 C30.9823001,37.5202855 30.7099871,37.2479725 30.5512657,36.9093668 L24.7670814,24.5697736 C24.673318,24.3697451 24.7594629,24.1315798 24.9594914,24.0378164 C25.0126237,24.0129107 25.070585,24 25.1292649,24 L27.4644023,24 Z M22.6085885,14.236068 L25.5147587,16.3475242 C26.6869443,17.1991669 27.2891567,18.6009124 27.1420606,20.0008242 L25.1292649,20 C24.4837854,20 23.846211,20.1420173 23.2617559,20.4159807 C23.1075215,20.4882781 22.9594423,20.5683802 22.8177686,20.6555955 L23.1676805,19.582272 L20.2574475,17.467864 L17.3472146,19.582272 L18.4588247,23.003456 L20.956904,23.0030486 C20.610388,24.0374967 20.6456553,25.2017164 21.1452456,26.2675091 L21.488,26.999 L18.4613356,27 C16.7284306,27 15.1926067,25.8841586 14.6571096,24.236068 L13.5470514,20.8196601 C13.0115543,19.1715695 13.5981868,17.3661002 15.0001364,16.3475242 L17.9063065,14.236068 C19.3082562,13.2174919 21.2066389,13.2174919 22.6085885,14.236068 Z"></path>
        </g>
    </g>
</svg>