<?xml version="1.0" encoding="UTF-8"?>
<svg width="40px" height="40px" viewBox="0 0 40 40" version="1.1" xmlns="http://www.w3.org/2000/svg" xmlns:xlink="http://www.w3.org/1999/xlink">
    <title>Icon_Statistics_40</title>
    <g id="Icon_Statistics_40" stroke="none" stroke-width="1" fill="none" fill-rule="evenodd">
        <path d="M20,2 C29.9411255,2 38,10.0588745 38,20 C38,29.9411255 29.9411255,38 20,38 C10.0588745,38 2,29.9411255 2,20 C2,10.0588745 10.0588745,2 20,2 Z M6,20 C6,27.7319865 12.2680135,34 20,34 C23.1449477,34 26.0476933,32.9630099 28.3849608,31.2123059 L18.5857864,21.4142136 L18.4905663,21.3121469 C18.4858007,21.3066694 18.4810644,21.3011657 18.4763577,21.2956361 L18.5857864,21.4142136 C18.5367025,21.3651296 18.4907031,21.3141291 18.4477884,21.2614529 C18.4237873,21.2318001 18.4007256,21.2017551 18.3785145,21.1710544 C18.3689402,21.1580886 18.3597562,21.1450762 18.3507458,21.1319803 C18.3289237,21.0999531 18.3078428,21.0673111 18.2877045,21.0340349 C18.2803003,21.0221283 18.273182,21.0100748 18.266201,20.9979638 C18.1639216,20.8203709 18.0879337,20.6254426 18.0438948,20.4186908 C18.0379128,20.389795 18.0323495,20.3605077 18.0274438,20.331132 C18.0234259,20.3079518 18.0200029,20.2849212 18.016976,20.2617659 C18.0146009,20.2427334 18.0123444,20.2233869 18.0103698,20.2040171 C18.0073236,20.1748166 18.0050139,20.1457164 18.0033336,20.1164475 C18.001726,20.0881658 18.0006708,20.0593964 18.0002329,20.0306194 C18.000075,20.0202004 18,20.0101089 18,20 L18.0001595,6.1417549 C11.2154935,7.11214559 6,12.9470009 6,20 Z M22.0008423,6.14189822 L22,18 L33.8582451,18.0001595 C32.981321,11.8689826 28.1318796,7.019255 22.0008423,6.14189822 Z" id="合并形状" fill="#292A33"></path>
    </g>
</svg>