<?xml version="1.0" encoding="UTF-8"?>
<svg width="40px" height="40px" viewBox="0 0 40 40" version="1.1" xmlns="http://www.w3.org/2000/svg" xmlns:xlink="http://www.w3.org/1999/xlink">
    <title>Icon_EPLBlast_40</title>
    <g id="控件" stroke="none" stroke-width="1" fill="none" fill-rule="evenodd">
        <g id="Icon_EPLBlast_40">
            <rect id="蒙版" x="0" y="0" width="40" height="40"></rect>
            <path d="M39.4981267,27.601268 C39.8083989,28.4286605 39.38919,29.35092 38.5617975,29.6611922 L14.9701021,38.5080779 C14.2931559,38.7619328 13.5410778,38.7224588 12.8944258,38.3991328 L1.28445825,32.594149 C0.494092651,32.1989662 0.173733696,31.2378893 0.568916494,30.4475237 C0.964099292,29.6571581 1.92517616,29.3367992 2.71554175,29.731982 L14.091,35.4190655 L37.4382025,26.6649388 C38.265595,26.3546666 39.1878545,26.7738754 39.4981267,27.601268 Z M39.4981267,21.601268 C39.8083989,22.4286605 39.38919,23.35092 38.5617975,23.6611922 L14.9701021,32.5080779 C14.2931559,32.7619328 13.5410778,32.7224588 12.8944258,32.3991328 L1.28445825,26.594149 C0.494092651,26.1989662 0.173733696,25.2378893 0.568916494,24.4475237 C0.964099292,23.6571581 1.92517616,23.3367992 2.71554175,23.731982 L14.091,29.4190655 L37.4382025,20.6649388 C38.265595,20.3546666 39.1878545,20.7738754 39.4981267,21.601268 Z M39.4981267,15.601268 C39.8083989,16.4286605 39.38919,17.35092 38.5617975,17.6611922 L14.5617975,26.6611922 C14.1452152,26.8174105 13.6823979,26.7931188 13.2844582,26.594149 L1.28445825,20.594149 C0.494092651,20.1989662 0.173733696,19.2378893 0.568916494,18.4475237 C0.964099292,17.6571581 1.92517616,17.3367992 2.71554175,17.731982 L14.091,23.4190655 L37.4382025,14.6649388 C38.265595,14.3546666 39.1878545,14.7738754 39.4981267,15.601268 Z M27.1058409,1.61466584 L38.1649804,7.14631559 C39.4492278,7.78868086 39.9695762,9.35050908 39.3272109,10.6347565 C39.0336558,11.221646 38.5290369,11.6758271 37.9145869,11.9061856 L14.9699386,20.5081793 C14.2930433,20.7619486 13.541054,20.7224469 12.8944716,20.3991556 L1.83556598,14.8697028 C0.551221889,14.2275308 0.0306385876,12.6657809 0.672810634,11.3814368 C0.966302813,10.7944524 1.47091411,10.3401696 2.08539711,10.1097375 L25.0298115,1.50554694 C25.7068859,1.25164299 26.4591148,1.29118115 27.1058409,1.61466584 Z M23.0894065,5.64964478 L9.0110094,10.9289294 C9.61836481,11.2949221 10,11.8242819 10,12.4130655 C10,13.3096586 9.11503146,14.0684547 7.89565724,14.3224119 L11.4564047,16.10214 C11.986858,15.5380975 12.9277339,15.1630655 14,15.1630655 C15.2580465,15.1630655 16.3352295,15.6793114 16.7809013,16.4113717 L20.3672824,15.0672232 C18.4303189,14.7324051 17,13.5590916 17,12.1630655 C17,10.5062112 19.0147186,9.16306547 21.5,9.16306547 C23.9852814,9.16306547 26,10.5062112 26,12.1630655 C26,12.4632255 25.9338772,12.7530896 25.8108127,13.0265371 L32.1192625,10.6613343 C31.4367049,10.2947332 31,9.73289862 31,9.10306547 C31,8.51876421 31.3758467,7.99298542 31.9751588,7.6273165 L28.724116,6.00198707 C28.2483245,6.6874947 27.2074689,7.16306547 26,7.16306547 C24.5948807,7.16306547 23.4153848,6.51905984 23.0894065,5.64964478 Z" id="形状结合" fill="#292A33" fill-rule="nonzero"></path>
        </g>
    </g>
</svg>