<?xml version="1.0" encoding="UTF-8"?>
<svg width="40px" height="40px" viewBox="0 0 40 40" version="1.1" xmlns="http://www.w3.org/2000/svg" xmlns:xlink="http://www.w3.org/1999/xlink">
    <title>Icon_Affiliate_40</title>
    <g id="控件" stroke="none" stroke-width="1" fill="none" fill-rule="evenodd">
        <g id="Icon_Affiliate_40">
            <rect id="蒙版" x="0" y="0" width="40" height="40"></rect>
            <path d="M20,0 C26.627417,0 32,5.372583 32,12 C32,14.2138173 31.4005153,16.2876175 30.3550261,18.0679204 C35.5591189,21.4560439 39,27.3261915 39,34 L38.9953805,34.2168896 C38.8818181,36.8776933 36.6887547,39 34,39 L6,39 C3.23857625,39 1,36.7614237 1,34 L1.0029425,33.6622002 C1.11685202,27.1284265 4.52885536,21.3987713 9.64533371,18.0668535 C8.59948471,16.2876175 8,14.2138173 8,12 C8,5.372583 13.372583,0 20,0 Z M27.7547185,21.1574555 L27.5369629,21.3383062 C25.8148148,22.7299985 23.6999072,23.6549931 21.3845404,23.9209899 L22.9711049,30.3124633 C23.0712305,30.7027072 22.9091216,31.0998872 22.5162542,31.4268852 L20.9833481,32.7052414 C20.7640476,32.8895215 20.3949433,33.0001358 19.9998072,32.9999985 C19.6065788,33.0006908 19.2361464,32.8900108 19.0162663,32.7052414 L17.4863137,31.4268852 C17.0921501,31.1001769 16.9289576,30.7029215 17.0285094,30.3124633 L18.6154596,23.9209899 C16.2016285,23.6436812 14.0056687,22.6501332 12.2454723,21.1582377 C7.90241813,23.785643 5,28.5538735 5,34 L5.00672773,34.1166211 C5.06449284,34.6139598 5.48716416,35 6,35 L34,35 C34.5522847,35 35,34.5522847 35,34 L34.9967822,33.6861718 C34.8876913,28.3708609 32.0137712,23.7347233 27.7547185,21.1574555 Z M20,4 C15.581722,4 12,7.581722 12,12 C12,16.418278 15.581722,20 20,20 C24.418278,20 28,16.418278 28,12 C28,7.581722 24.418278,4 20,4 Z M19.5,5 C20.3284271,5 21,5.67157288 21,6.5 L22,6.5 C22.8284271,6.5 23.5,7.17157288 23.5,8 C23.5,8.82842712 22.8284271,9.5 22,9.5 L19,9.5 C18.7545401,9.5 18.5503916,9.67687516 18.5080557,9.91012437 L18.5,10 C18.5,10.2761424 18.7238576,10.5 19,10.5 L21,10.5 C22.9329966,10.5 24.5,12.0670034 24.5,14 C24.5,15.8685634 23.0357224,17.3951264 21.1920352,17.4948211 L21,17.5 C21,18.3284271 20.3284271,19 19.5,19 C18.6715729,19 18,18.3284271 18,17.5 C17.1715729,17.5 16.5,16.8284271 16.5,16 C16.5,15.1715729 17.1715729,14.5 18,14.5 L21,14.5 C21.2454599,14.5 21.4496084,14.3231248 21.4919443,14.0898756 L21.5,14 C21.5,13.7238576 21.2761424,13.5 21,13.5 L19,13.5 C17.0670034,13.5 15.5,11.9329966 15.5,10 C15.5,8.41443023 16.5543346,7.0751135 18.0001626,6.64489094 L18,6.5 C18,5.67157288 18.6715729,5 19.5,5 Z" id="形状结合" fill="#292A33"></path>
        </g>
    </g>
</svg>