<?xml version="1.0" encoding="UTF-8"?>
<svg width="40px" height="40px" viewBox="0 0 40 40" version="1.1" xmlns="http://www.w3.org/2000/svg" xmlns:xlink="http://www.w3.org/1999/xlink">
    <title>Icon_Rugby_40</title>
    <g id="控件" stroke="none" stroke-width="1" fill="none" fill-rule="evenodd">
        <g id="Icon_Rugby_40" fill="#292A33">
            <g id="合并形状">
                <g>
                    <path d="M20,5.5 C32.4264069,5.5 42.5,11.9918711 42.5,20 C42.5,28.0081289 32.4264069,34.5 20,34.5 C7.57359313,34.5 -2.5,28.0081289 -2.5,20 C-2.5,11.9918711 7.57359313,5.5 20,5.5 Z M36.0023019,25.2722363 L35.9099026,25.3033009 C31.8382034,26.6605339 26.2132034,27.5 20,27.5 C13.739657,27.5 8.07647664,26.6477475 3.9976901,25.2723196 C7.20197421,28.3984268 13.1685728,30.5 20,30.5 C26.8314272,30.5 32.7980258,28.3984268 36.0023019,25.2722363 Z M20.4305465,16.5009292 L20,16.5 C9.78273213,16.5 1.5,18.0670034 1.5,20 C1.5,21.9329966 9.78273213,23.5 20,23.5 C30.2172679,23.5 38.5,21.9329966 38.5,20 C38.5,18.0942287 30.4489412,16.5442135 20.4305465,16.5009292 Z M20,9.5 C13.1685728,9.5 7.20197421,11.6015732 3.99769813,14.7277637 C8.07647664,13.3522525 13.739657,12.5 20,12.5 C26.260343,12.5 31.9235234,13.3522525 36.0023099,14.7276804 C32.7980258,11.6015732 26.8314272,9.5 20,9.5 Z" id="形状结合" transform="translate(20.000000, 20.000000) rotate(-45.000000) translate(-20.000000, -20.000000) "></path>
                </g>
            </g>
        </g>
    </g>
</svg>