<?xml version="1.0" encoding="UTF-8"?>
<svg width="40px" height="40px" viewBox="0 0 40 40" version="1.1" xmlns="http://www.w3.org/2000/svg" xmlns:xlink="http://www.w3.org/1999/xlink">
    <title>Icon_Basketball_40</title>
    <g id="控件" stroke="none" stroke-width="1" fill="none" fill-rule="evenodd">
        <g id="Icon_Basketball_40" fill="#292A33">
            <g id="合并形状">
                <path d="M20,2 C29.9411255,2 38,10.0588745 38,20 C38,29.9411255 29.9411255,38 20,38 C10.0588745,38 2,29.9411255 2,20 C2,10.0588745 10.0588745,2 20,2 Z M11.3065207,30.925072 L11.2828825,30.955678 C13.1818472,32.4686329 15.4830087,33.4982245 18.0001595,33.8582451 L18,22 L14.8900154,22.0011487 C14.5212652,25.3349598 13.2420425,28.3943254 11.3065207,30.925072 Z M25.1099849,22.001148 L22,22 L22.0008423,33.8581018 C24.5180446,33.4978879 26.8192143,32.46807 28.7181196,30.9548796 C26.7681757,28.4186658 25.4802057,25.3482345 25.1099849,22.001148 Z M8.49906111,27.9851881 L8.58033556,27.8685849 C9.75201271,26.1484245 10.5499835,24.1536673 10.8580872,22.0008768 L6.14189822,22.0008423 C6.45694405,24.202407 7.284196,26.2387199 8.49906111,27.9851881 Z M33.8581018,22.0008423 L29.1419034,22.0008787 C29.4569647,24.2025097 30.284263,26.2388779 31.4991939,27.985379 C32.715804,26.2387199 33.543056,24.202407 33.8581018,22.0008423 Z M31.5009389,12.0148119 L31.4196644,12.1314151 C30.2478055,13.8518423 29.449769,15.8469515 29.1417695,18.0001249 L33.8582451,18.0001595 C33.5433069,15.7982107 32.7159883,13.761545 31.5009389,12.0148119 Z M22.0008423,6.14189822 L22,18 L25.1098436,18.0001263 C25.4798667,14.6526301 26.7678466,11.5817929 28.7164831,9.04491494 C26.8192143,7.53193003 24.5180446,6.50211207 22.0008423,6.14189822 Z M8.50080613,12.014621 L8.43193127,12.1121893 C7.25353385,13.8370641 6.45085858,15.8390039 6.1417549,18.0001595 L10.8582399,18.000123 C10.5432863,15.798108 9.71592129,13.761387 8.50080613,12.014621 Z M11.4067054,8.94679823 L11.283303,9.04493074 C13.2320604,11.5817014 14.5200638,14.6524609 14.8901288,17.9998836 L18,18 L18.0001595,6.1417549 C15.5374706,6.493986 13.2815258,7.48712729 11.4067054,8.94679823 Z"></path>
            </g>
        </g>
    </g>
</svg>