<?xml version="1.0" encoding="UTF-8"?>
<svg width="40px" height="40px" viewBox="0 0 40 40" version="1.1" xmlns="http://www.w3.org/2000/svg" xmlns:xlink="http://www.w3.org/1999/xlink">
    <title>Icon_Tennis_40</title>
    <g id="控件" stroke="none" stroke-width="1" fill="none" fill-rule="evenodd">
        <g id="Icon_Tennis_40" fill="#292A33">
            <g id="合并形状">
                <path d="M20,2 C29.9411255,2 38,10.0588745 38,20 C38,29.9411255 29.9411255,38 20,38 C10.0588745,38 2,29.9411255 2,20 C2,10.0588745 10.0588745,2 20,2 Z M33.8512862,22.0478992 L33.7614493,22.0540351 C27.2897754,22.6213289 22.0809623,27.5919065 21.1487201,33.9520576 C27.6624704,33.4241393 32.9147947,28.4371801 33.8512862,22.0478992 Z M22.8557902,6.29149438 L22.8133129,6.60201244 C21.6056437,14.9426857 14.6788945,21.4318274 6.13788645,21.964616 C6.95922087,27.8238411 11.4096661,32.5200119 17.1442098,33.7085056 C18.2237259,25.2183011 25.2157565,18.5747443 33.8621135,18.035384 C33.0407791,12.1761589 28.5903339,7.47998814 22.8557902,6.29149438 Z M18.8512492,6.04815195 L18.7597556,6.05418367 C12.288852,6.62219746 7.08085736,11.5924838 6.14871376,17.9521008 C12.6624788,17.4240568 17.9146646,12.4372543 18.8512492,6.04815195 Z"></path>
            </g>
        </g>
    </g>
</svg>