<?xml version="1.0" encoding="UTF-8"?>
<svg width="40px" height="40px" viewBox="0 0 40 40" version="1.1" xmlns="http://www.w3.org/2000/svg" xmlns:xlink="http://www.w3.org/1999/xlink">
    <title>Icon_Results_40</title>
    <g id="控件" stroke="none" stroke-width="1" fill="none" fill-rule="evenodd">
        <g id="Icon_Results_40" fill="#292A33">
            <g id="形状结合">
                <path d="M30,6 C34.418278,6 38,9.581722 38,14 L38,34 C38,35.1045695 37.1045695,36 36,36 C34.8954305,36 34,35.1045695 34,34 L34,30 L6,30 L6,34 C6,35.1045695 5.1045695,36 4,36 C2.8954305,36 2,35.1045695 2,34 L2,14 C2,9.581722 5.581722,6 10,6 L30,6 Z M29.7638055,10.0000983 L22.2361945,10.0000983 C22.7111821,10.5308431 23,11.231693 23,12 C23,13.6568542 21.6568542,15 20,15 C18.3431458,15 17,13.6568542 17,12 C17,11.231693 17.2888179,10.5308431 17.7638055,10.0000983 L10.2361945,10.0000983 C10.7111821,10.5308431 11,11.231693 11,12 C11,13.6568542 9.65685425,15 8,15 C7.23169302,15 6.53084306,14.7111821 6.00009834,14.2361945 L6.00009834,21.7638055 C6.53084306,21.2888179 7.23169302,21 8,21 C9.65685425,21 11,22.3431458 11,24 C11,24.7687804 10.7108261,25.4700206 10.2353163,26.0008825 L17.7646837,26.0008825 C17.2891739,25.4700206 17,24.7687804 17,24 C17,22.3431458 18.3431458,21 20,21 C21.6568542,21 23,22.3431458 23,24 C23,24.7687804 22.7108261,25.4700206 22.2353163,26.0008825 L29.7646837,26.0008825 C29.2891739,25.4700206 29,24.7687804 29,24 C29,22.3431458 30.3431458,21 32,21 C32.7687804,21 33.4700206,21.2891739 34.0008825,21.7646837 L34.0008825,14.2353163 C33.4700206,14.7108261 32.7687804,15 32,15 C30.3431458,15 29,13.6568542 29,12 C29,11.231693 29.2888179,10.5308431 29.7638055,10.0000983 Z M14,15 C15.6568542,15 17,16.3431458 17,18 C17,19.6568542 15.6568542,21 14,21 C12.3431458,21 11,19.6568542 11,18 C11,16.3431458 12.3431458,15 14,15 Z M26,15 C27.6568542,15 29,16.3431458 29,18 C29,19.6568542 27.6568542,21 26,21 C24.3431458,21 23,19.6568542 23,18 C23,16.3431458 24.3431458,15 26,15 Z"></path>
            </g>
        </g>
    </g>
</svg>