<?xml version="1.0" encoding="UTF-8"?>
<svg width="40px" height="40px" viewBox="0 0 40 40" version="1.1" xmlns="http://www.w3.org/2000/svg" xmlns:xlink="http://www.w3.org/1999/xlink">
    <title>Icon_Volleyball_40</title>
    <g id="控件" stroke="none" stroke-width="1" fill="none" fill-rule="evenodd">
        <g id="Icon_Volleyball_40" fill="#292A33">
            <g id="Volleyball">
                <g transform="translate(2.000000, 2.000000)">
                    <path d="M18,0 C27.9411255,0 36,8.0588745 36,18 C36,27.9411255 27.9411255,36 18,36 C8.0588745,36 0,27.9411255 0,18 C0,8.0588745 8.0588745,0 18,0 Z M24.4186885,17.9431438 C22.9028532,18.1140022 21.3957442,18.536734 19.9571745,19.2269446 C19.6322733,24.0643229 17.3960324,28.3777988 13.9972876,31.4188473 C15.2647675,31.7970447 16.6086824,32 18,32 L18.288044,31.9971229 C22.1961772,28.5680107 24.5812225,23.4904782 24.4186885,17.9431438 Z M28.4222167,18.0672052 C28.5035046,22.440377 27.2904705,26.5664805 25.1211325,30.0567744 C28.9189697,27.8081187 31.5628736,23.8165202 31.9506822,19.1834946 C30.8277,18.6566271 29.6404226,18.2818486 28.4222167,18.0672052 Z M4.00124572,18.1450474 L4,18 C4,22.7574057 6.37294747,26.9605798 9.99980667,29.4904866 C11.0176415,28.7806813 11.9358628,27.9398199 12.7308582,26.9921016 C8.90506556,24.8774756 5.93937984,21.7663231 4.00124572,18.1450474 Z M8.38133591,7.82879767 L8.30803023,7.89721583 C7.29022968,8.87388151 6.41971046,10.0028594 5.73311369,11.2475085 C6.74826203,16.3478963 9.95342214,20.9537476 14.8400452,23.5872565 C15.4497325,22.1892729 15.8371745,20.6729539 15.9587883,19.0822668 C11.9333778,16.3823747 9.31644122,12.2907852 8.38133591,7.82879767 Z M14.7412923,12.4697576 C15.6470271,13.6966539 16.7663869,14.7902895 18.0830415,15.6909244 C22.4354826,13.5538058 27.2897238,13.3339591 31.6230336,14.7571834 C31.2827604,13.3244108 30.7226789,11.9766435 29.9800695,10.751853 C25.0560816,9.08181061 19.4650491,9.55472951 14.7412923,12.4697576 Z M18,4 C15.8725646,4 13.8559608,4.47452656 12.0502583,5.32350998 C12.1544935,6.56100757 12.4235388,7.77705282 12.8468357,8.93978619 C16.5933702,6.6830817 20.773135,5.67068532 24.8804581,5.80428872 C22.8483266,4.65566547 20.5007328,4 18,4 Z" id="合并形状"></path>
                </g>
            </g>
        </g>
    </g>
</svg>