<?xml version="1.0" encoding="UTF-8"?>
<svg width="40px" height="40px" viewBox="0 0 40 40" version="1.1" xmlns="http://www.w3.org/2000/svg" xmlns:xlink="http://www.w3.org/1999/xlink">
    <title>Icon_Gifts_40</title>
    <g id="控件" stroke="none" stroke-width="1" fill="none" fill-rule="evenodd">
        <g id="Icon_Gifts_40" fill="#292A33">
            <g id="形状结合">
                <path d="M31,5 C35.418278,5 39,8.581722 39,13 L39,14.34 C39,15.2132421 38.4403517,15.9557714 37.6607119,16.2297177 C36.1102334,16.7805107 35,18.2606009 35,20 C35,21.7393991 36.1102334,23.2194893 37.6601597,23.7715166 C38.3915897,24.0271841 38.9291825,24.6957769 38.9935244,25.4978817 L39,25.66 L39,27 C39,31.418278 35.418278,35 31,35 L9,35 C4.581722,35 1,31.418278 1,27 L1,25.66 L1.00647545,25.4978814 C1.07081538,24.6957721 1.60837577,24.0271069 2.33928813,23.7702823 C3.88976661,23.2194893 5,21.7393991 5,20 C5,18.2606009 3.88976661,16.7805107 2.33984033,16.2284834 C1.60841028,15.9728159 1.07081753,15.3042231 1.00647559,14.5021183 L1,14.34 L1,13 C1,8.581722 4.581722,5 9,5 L31,5 Z M31,9 L9,9 C6.85780461,9 5.10892112,10.6839685 5.00489531,12.8003597 L5,13 L5.00064244,13.0706292 C7.39149363,14.4539583 9,17.0391358 9,20 C9,22.8621688 7.49694016,25.3732791 5.23708915,26.7870623 L5.00064244,26.9293708 L5,27 C5,29.1421954 6.68396847,30.8910789 8.80035966,30.9951047 L9,31 L31,31 C33.1421954,31 34.8910789,29.3160315 34.9951047,27.1996403 L35,27 L34.99984,26.9296499 C32.6087228,25.5463894 31,22.9610634 31,20 C31,17.1376387 32.503262,14.6263831 34.7633669,13.2126524 L34.99984,13.0703501 L35,13 C35,10.790861 33.209139,9 31,9 Z M25,22 C26.6568542,22 28,23.3431458 28,25 C28,26.6568542 26.6568542,28 25,28 C23.3431458,28 22,26.6568542 22,25 C22,23.3431458 23.3431458,22 25,22 Z M27.0710678,12.9289322 C27.8521164,13.7099808 27.8521164,14.9763107 27.0710678,15.7573593 L15.7573593,27.0710678 C14.9763107,27.8521164 13.7099808,27.8521164 12.9289322,27.0710678 C12.1478836,26.2900192 12.1478836,25.0236893 12.9289322,24.2426407 L24.2426407,12.9289322 C25.0236893,12.1478836 26.2900192,12.1478836 27.0710678,12.9289322 Z M15,12 C16.6568542,12 18,13.3431458 18,15 C18,16.6568542 16.6568542,18 15,18 C13.3431458,18 12,16.6568542 12,15 C12,13.3431458 13.3431458,12 15,12 Z"></path>
            </g>
        </g>
    </g>
</svg>