<?xml version="1.0" encoding="UTF-8"?>
<svg width="40px" height="40px" viewBox="0 0 40 40" version="1.1" xmlns="http://www.w3.org/2000/svg" xmlns:xlink="http://www.w3.org/1999/xlink">
    <title>Icon_TableTennis_40</title>
    <g id="控件" stroke="none" stroke-width="1" fill="none" fill-rule="evenodd">
        <g id="Icon_TableTennis_40" fill="#292A33" fill-rule="nonzero">
            <g id="合并形状">
                <path d="M25.1210547,1.59976562 C25.6345703,1.59496094 26.156875,1.62296875 26.6712109,1.67496094 C29.7539453,1.98769531 32.8375,3.34269531 35.5442578,6.04871094 C39.1565234,9.65773438 40.3675391,13.9451172 39.8940234,17.9973047 C39.4205078,22.0494922 37.3064062,25.8601563 34.3700391,28.7957031 C32.1815625,30.9841406 28.8980469,32.8958594 23.4964844,33.2198047 C23.4588672,33.2222266 23.2221094,33.2214063 23.1709375,33.2198047 C21.4071875,33.1766016 19.8595703,33.0491113 18.175,32.3859863 C17.8227234,32.2743225 17.4452972,32.1179199 16.8180237,32.0767059 C16.1907501,32.0354919 15.5104104,32.2619568 15.2219238,32.5515747 C14.1029004,33.6689575 13.1471997,34.9799146 12.1873169,36.2005005 C11.2266919,37.4211646 10.2564087,38.6565552 9.5067749,39.3128052 C8.75714111,39.9690552 7.33071002,40.074343 6.33001709,39.8460693 C5.36216553,39.62771 4.28367187,38.9211849 3.435,38.0733333 C2.5815625,37.2190365 1.90268799,36.3327197 1.69073486,35.3648682 C1.4771333,34.3795723 1.45731931,32.7583542 2.16955566,32.0448047 C2.82064941,31.3961328 4.30264323,30.1273958 5.52166667,29.1683333 C6.74709635,28.2036849 7.70367187,27.5454883 8.82347656,26.4272461 C9.04507812,26.2049023 9.36080933,25.8278809 9.36080933,24.8791809 C9.36080933,23.930481 9.14468384,23.4045105 9.14468384,23.4045105 C8.53519165,21.8031824 8.42671875,20.1681641 8.37316406,18.4972266 L8.37316406,18.4972266 L8.37394531,18.0469141 C8.86664062,12.0653906 10.6287891,9.36660156 12.7732812,7.22371094 C15.7096484,4.28816406 19.5426562,2.17164062 23.5964453,1.69976562 C24.1024866,1.63910721 24.6114257,1.60572561 25.1210547,1.59976562 Z M13.3236389,25.1160736 C13.3043416,25.6538544 13.2617696,26.0758565 13.1959229,26.3820801 C13.1959229,26.3820801 13.0807953,27.0674133 12.3045654,28.0380859 C11.4485931,29.0961456 9.54406738,30.8382568 8.56610107,31.6655273 C7.58813477,32.4927979 5.53344727,34.3598328 5.53509422,34.367157 C6.18252563,35.2718201 6.69876099,35.6652679 7.21801758,35.9482574 C7.55697632,35.6031494 8.61639404,34.3872833 9.7510376,32.9130859 C10.0618591,32.5365906 12.2179565,29.8853149 13.411377,28.9414673 C13.9895935,28.5604858 14.7747192,28.434021 14.7747192,28.434021 C15.3204346,28.3275909 16.1008606,28.2290039 16.3729858,28.2290039 L16.3729858,28.2290039 Z M26.6165161,5.69976807 C25.7737427,5.54315186 24.401001,5.58081055 23.8470459,5.69976807 C21.03125,6.11352539 18.0232107,7.64614188 15.7285767,9.93908691 C14.0608568,11.6053658 12.7299805,13.5667725 12.3711548,18.5427856 L12.3711548,18.5427856 L23.0263062,29.2093506 C27.1934814,29.0943604 30.1340328,27.5036513 31.6898193,25.8068237 C33.9237061,23.3704224 35.5304376,20.7785273 35.8881836,17.7203979 C36.2459296,14.6622356 35.5462198,11.7178547 32.7579346,8.93280029 C30.6681656,6.84400125 28.8916576,6.12256738 26.6165161,5.69976807 Z M5,0 C7.76142375,0 10,2.23857625 10,5 C10,7.76142375 7.76142375,10 5,10 C2.23857625,10 8.17124146e-14,7.76142375 8.17124146e-14,5 C8.17124146e-14,2.23857625 2.23857625,0 5,0 Z M5,4 C4.44771525,4 4,4.44771525 4,5 C4,5.55228475 4.44771525,6 5,6 C5.55228475,6 6,5.55228475 6,5 C6,4.44771525 5.55228475,4 5,4 Z"></path>
            </g>
        </g>
    </g>
</svg>