<?xml version="1.0" encoding="UTF-8"?>
<svg width="40px" height="40px" viewBox="0 0 40 40" version="1.1" xmlns="http://www.w3.org/2000/svg" xmlns:xlink="http://www.w3.org/1999/xlink">
    <title>Icon_Handball_40</title>
    <g id="控件" stroke="none" stroke-width="1" fill="none" fill-rule="evenodd">
        <g id="Icon_Handball_40" fill="#292A33">
            <g id="合并形状">
                <path d="M20,2 C29.9411255,2 38,10.0588745 38,20 C38,29.9411255 29.9411255,38 20,38 C10.0588745,38 2,29.9411255 2,20 C2,10.0588745 10.0588745,2 20,2 Z M19.995,32.21 L16.4983054,33.5585025 C17.6174854,33.8467098 18.7908413,34 20,34 C21.2066367,34 22.3776197,33.8473486 23.4946906,33.5603042 L19.995,32.21 Z M13.14,23.805 L11.3549571,24.384791 L11.1409571,28.396791 L14.7509571,31.019791 L18.4999571,29.576791 L18.5,27.702 L13.1966958,23.8498447 L13.14,23.805 Z M26.873,23.809 L26.8233042,23.8498447 L21.5,27.716 L21.4999571,29.576791 L25.2479571,31.019791 L28.8589571,28.395791 L28.6449571,24.384791 L26.873,23.809 Z M33.9733507,20.870937 L31.610855,23.7778528 L31.8117179,27.518813 C33.0507241,25.5764413 33.8237705,23.3079805 33.9733507,20.870937 Z M8.18254377,27.5098095 L8.38605485,23.7683422 L6.02634356,20.8659418 C6.17494371,23.3011158 6.94604364,25.5681049 8.18254377,27.5098095 Z M22.7725907,16.5976201 L17.2474093,16.5976201 L15.5400344,21.8523799 L20.01,25.1 L24.4799656,21.8523799 L22.7725907,16.5976201 Z M13.1559571,13.132791 L9.27595713,14.168791 L7.89695713,18.414791 L10.4269571,21.531791 L12.741,20.78 L14.586,15.101 L13.1559571,13.132791 Z M26.8429571,13.132791 L25.427,15.081 L27.281,20.788 L29.5719571,21.531791 L32.1019571,18.414791 L30.7229571,14.168791 L26.8429571,13.132791 Z M22.2309571,7.99979099 L17.7679571,7.99979099 L15.5829571,11.369791 L17.206,13.604 L22.792,13.604 L24.4159571,11.369791 L22.2309571,7.99979099 Z M25.143912,6.97521792 L27.180903,10.1248414 L30.7948141,11.0846927 C29.3003864,9.2772637 27.3607563,7.85144269 25.143912,6.97521792 Z M9.20932252,11.079692 L12.8271872,10.1189636 L14.8610854,6.97324377 C12.644204,7.8484928 10.7043156,9.27327623 9.20932252,11.079692 Z"></path>
            </g>
        </g>
    </g>
</svg>