<?xml version="1.0" encoding="UTF-8"?>
<svg width="40px" height="40px" viewBox="0 0 40 40" version="1.1" xmlns="http://www.w3.org/2000/svg" xmlns:xlink="http://www.w3.org/1999/xlink">
    <title>Icon_IceHockey_40</title>
    <g id="控件" stroke="none" stroke-width="1" fill="none" fill-rule="evenodd">
        <g id="Icon_IceHockey_40" fill="#292A33">
            <g id="合并形状">
                <path d="M38.31605,0.121159062 C39.3540058,0.498944081 39.8891799,1.64662878 39.5113949,2.68458459 L30.2768511,28.0562854 C30.2498008,28.1306054 30.2188033,28.2023478 30.1841815,28.2713619 C27.8835174,34.600236 21.8259592,39 14.8578644,39 L7,39 C3.13400675,39 4.73447626e-16,35.8659932 0,32 C-4.73447626e-16,28.1340068 3.13400675,25 7,25 L23.144,25 L23.1870758,24.9999426 C25.6246026,24.8971931 27.6860044,23.3401764 28.5260516,21.1741222 L35.7526244,1.31650402 C36.1304095,0.278548209 37.2780942,-0.256625956 38.31605,0.121159062 Z M8,29 L7,29 C5.34314575,29 4,30.3431458 4,32 C4,33.5976809 5.24891996,34.9036609 6.82372721,34.9949073 L7,35 L8,34.999 L8,29 Z M16,29 L12,29 L12,34.999 L14.9406669,35 C15.2964024,35 15.6499441,34.98446 16.0004591,34.9538564 L16,29 Z M25.6380615,28.6349792 C24.9088135,28.8435625 24.1428023,28.962753 23.3400281,28.9925506 L22.9355774,29 L20,28.999 L20.0002219,33.8976543 C22.1347418,32.9208967 23.9740865,31.3323778 25.2543796,29.283096 L25.4259491,29 C25.5673574,28.7566528 25.6380615,28.6349792 25.6380615,28.6349792 Z"></path>
                <path d="M9,4 C13.9705627,4 18,6.23857625 18,9 L18,9 L18,15 C18,17.7614237 13.9705627,20 9,20 C4.02943725,20 -3.41060513e-13,17.7614237 -3.41060513e-13,15 L-1.13686838e-13,9 L0.00481061821,8.83495572 C0.16155394,6.14992863 4.12884851,4 9,4 Z M14.0008484,13.1577128 C12.5705822,13.6897264 10.8505125,14 9,14 C7.14948746,14 5.42941783,13.6897264 3.99915157,13.1577128 L4,14.999 L4.02271806,14.9996539 C5.4483465,15.6317569 7.15966741,16 9,16 C10.839525,16 12.5501515,15.63208 13.9753409,15.0005991 L14,15 Z M9,8 C7.22370322,8 5.62769107,8.38594516 4.52909083,9.00072815 C5.62769107,9.61405484 7.22370322,10 9,10 C10.7761347,10 12.3720176,9.61412528 13.4706084,8.99910395 C12.3720176,8.38587472 10.7761347,8 9,8 Z"></path>
            </g>
        </g>
    </g>
</svg>