<?xml version="1.0" encoding="UTF-8"?>
<svg width="40px" height="40px" viewBox="0 0 40 40" version="1.1" xmlns="http://www.w3.org/2000/svg" xmlns:xlink="http://www.w3.org/1999/xlink">
    <title>Icon_LoadCode_40</title>
    <g id="控件" stroke="none" stroke-width="1" fill="none" fill-rule="evenodd">
        <g id="Icon_LoadCode_40" fill="#292A33">
            <g id="形状结合">
                <path d="M34,19 C35.1045695,19 36,19.8954305 36,21 C36,21.1831317 35.9753865,21.3605146 35.9292873,21.5290211 C35.4804947,26.2508484 32.9801652,30.3755917 29.3290671,33.000275 L32,33 C33.1045695,33 34,33.8954305 34,35 C34,36.0543618 33.1841222,36.9181651 32.1492623,36.9945143 L32,37 L28,37 C24.6862915,37 22,34.3137085 22,31 L22,28 L22.0054857,27.8507377 C22.0818349,26.8158778 22.9456382,26 24,26 C25.0543618,26 25.9181651,26.8158778 25.9945143,27.8507377 L26,28 L26.0006396,30.3942437 C29.5047622,28.3669299 31.8885972,24.6185254 31.9962001,20.3049748 L32,20 L32,21 C32,19.8954305 32.8954305,19 34,19 Z M28,4 C32.418278,4 36,7.581722 36,12 L36,14 L35.9945143,14.1492623 C35.9181651,15.1841222 35.0543618,16 34,16 C32.8954305,16 32,15.1045695 32,14 L32,14 L32,12 C32,9.790861 30.209139,8 28,8 L12,8 C9.85780461,8 8.10892112,9.68396847 8.00489531,11.8003597 L8,12 L8,28 C8,30.1421954 9.68396847,31.8910789 11.8003597,31.9951047 L12,32 L17,32 C18.1045695,32 19,32.8954305 19,34 C19,35.1045695 18.1045695,36 17,36 L17,36 L12,36 C7.581722,36 4,32.418278 4,28 L4,12 C4,7.581722 7.581722,4 12,4 L28,4 Z M20,22 C21.1045695,22 22,22.8954305 22,24 C22,25.1045695 21.1045695,26 20,26 L16,26 C14.8954305,26 14,25.1045695 14,24 C14,22.8954305 14.8954305,22 16,22 L20,22 Z M24,14 C25.1045695,14 26,14.8954305 26,16 C26,17.1045695 25.1045695,18 24,18 L16,18 C14.8954305,18 14,17.1045695 14,16 C14,14.8954305 14.8954305,14 16,14 L24,14 Z"></path>
            </g>
        </g>
    </g>
</svg>