<?xml version="1.0" encoding="UTF-8"?>
<svg width="40px" height="40px" viewBox="0 0 40 40" version="1.1" xmlns="http://www.w3.org/2000/svg" xmlns:xlink="http://www.w3.org/1999/xlink">
    <title>Icon_NewVirtuals_40</title>
    <g id="控件" stroke="none" stroke-width="1" fill="none" fill-rule="evenodd">
        <g id="Icon_NewVirtuals_40" fill="#292A33" fill-rule="nonzero">
            <g id="Icon_Virtuals_40" transform="translate(1.000000, 0.000000)">
                <path d="M19,0.3 C19.4270604,0.3 19.833279,0.389234575 20.2010272,0.550075243 C24.1658484,2.3149992 29.0847776,4.02263195 34.9568019,5.67254301 L35.7399112,5.89062955 C37.0805769,6.26077955 37.9910329,7.50386274 37.9394353,8.89373084 C37.8035686,12.5329676 37.4719126,15.9017243 36.9444444,19 C36.0209854,24.4242725 30.1290637,36.5019738 20.2549354,39.6536563 L19.8402066,39.7800611 C19.5740742,39.8583092 19.2919058,39.9 19,39.9 C18.7780999,39.9 18.5618267,39.8759082 18.3536534,39.8301975 L18.1868669,39.787 L17.7581019,39.6579356 C7.87362102,36.5130678 1.97810416,24.4264426 1.05555556,19 C0.572737246,16.1600566 0.253932097,13.0927265 0.0991401085,9.79800968 L0.0609826655,8.89381317 C0.00901595529,7.50395492 0.919147007,6.26062755 2.25971948,5.89012526 C8.47833234,4.1712792 13.6586456,2.39081679 17.800664,0.548755314 C18.1673047,0.38910641 18.5732464,0.3 19,0.3 Z M18.999,4.391 L18.5145588,4.60127435 C14.7367216,6.21850436 10.2354701,7.77313359 5.00222369,9.27356019 L4.091,9.531 L4.09473281,9.61028922 C4.22741883,12.4344848 4.48540508,15.0714141 4.86714467,17.520264 L4.99897254,18.3295803 C6.11022783,24.8659981 12.2214599,33.6121041 18.944426,35.8326589 L18.999,35.849 L19.0550284,35.8327086 C25.6697607,33.6472452 31.6940939,25.1417586 32.9444247,18.6416002 L33.0011813,18.3286764 C33.4152708,15.896371 33.7027408,13.2720938 33.8620181,10.4571631 L33.908,9.532 L33.8747894,9.5234194 C28.2652721,7.94726709 23.471974,6.31015901 19.4846439,4.60185827 L18.999,4.391 Z M13.5,11.5 C15.6316872,11.5 16.0593405,14.0560509 14.7829599,15.0816269 L14.662,15.169 L19,23.265 L23.354,15.138 L23.2963795,15.0974206 C22.8498698,14.760455 22.5491138,14.2406108 22.5054857,13.6492623 L22.5,13.5 C22.5,12.3954305 23.3954305,11.5 24.5,11.5 L28,11.5 L28.1738272,11.5058381 C30.6653498,11.6758025 30.6074074,15.5 28,15.5 L27.696,15.5 L20.7629599,28.4444428 C20.0349895,29.803321 18.1286776,29.8501789 17.3194422,28.5850164 L17.2370401,28.4444428 L10.304,15.5 L10,15.5 C8.9456382,15.5 8.08183488,14.6841222 8.00548574,13.6492623 L8,13.5 C8,12.3954305 8.8954305,11.5 10,11.5 L13.5,11.5 Z" id="形状结合"></path>
            </g>
        </g>
    </g>
</svg>