<?xml version="1.0" encoding="UTF-8"?>
<svg width="40px" height="40px" viewBox="0 0 40 40" version="1.1" xmlns="http://www.w3.org/2000/svg" xmlns:xlink="http://www.w3.org/1999/xlink">
    <title>Icon_Badminton_40</title>
    <g id="控件" stroke="none" stroke-width="1" fill="none" fill-rule="evenodd">
        <g id="形状结合" transform="translate(-2, 0)">
            <rect id="蒙版" x="2" y="0" width="40" height="40"></rect>
            <path d="M34.6465603,7.32491961 C37.8478669,9.55049941 38.2300014,13.4981873 36.2559767,18.7527769 L36.2309209,18.8170705 L36.3449755,19.0278403 C37.8916208,21.9767791 37.8915968,25.0295223 36.3447388,27.9772865 L36.2309209,28.1860705 L36.2564541,28.2509965 C38.1926681,33.3964455 37.8665611,37.2816204 34.8365466,39.509865 L34.6350989,39.6528321 C34.0913148,40.025287 33.3989374,40.1059107 32.7841224,39.8683685 L11.1309209,31.5020705 L7.50492091,31.5027722 C3.15514346,31.5027722 -0.360182832,28.0813833 -0.49128814,23.7534486 L-0.495079091,23.5027722 C-0.495079091,19.0570183 3.07149389,15.5027722 7.50492091,15.5027722 L11.1319209,15.5020705 L32.7814902,7.10249328 C33.4014949,6.86193986 34.1005163,6.94530443 34.6465603,7.32491961 Z M33.0209209,11.2990705 L14.0049209,18.6770591 L14.0049209,28.3250591 L33.0269209,35.6740705 L33.091618,35.5668113 C33.7170998,34.4456704 33.6077594,32.5763237 32.5576753,29.7738017 L22.8232545,28.7499167 C21.724736,28.6344578 20.9278087,27.6503346 21.0432676,26.551816 C21.1587266,25.4532974 22.1428498,24.6563702 23.2413684,24.7718291 L32.9647675,25.7943311 C33.6846518,24.2464994 33.6849892,22.7611533 32.9656759,21.2124667 L23.2413684,22.2352014 C22.1428498,22.3506603 21.1587266,21.553733 21.0432676,20.4552145 C20.9278087,19.3566959 21.724736,18.3725727 22.8232545,18.2571138 L32.5557067,17.2336159 C33.6063798,14.4247042 33.7152577,12.5433513 33.0850203,11.4078038 L33.0209209,11.2990705 Z M10.0049209,19.5020591 L7.50492091,19.5027722 C5.27753868,19.5027722 3.50492091,21.2692634 3.50492091,23.5027722 C3.50492091,25.736281 5.27753868,27.5027722 7.50492091,27.5027722 L10.0049209,27.5020591 L10.0049209,19.5020591 Z" fill="#292A33" fill-rule="nonzero" transform="translate(18.5049, 23.4849) rotate(-45) translate(-18.5049, -23.4849)"></path>
        </g>
    </g>
</svg>