<?xml version="1.0" encoding="UTF-8"?>
<svg width="40px" height="40px" viewBox="0 0 40 40" version="1.1" xmlns="http://www.w3.org/2000/svg" xmlns:xlink="http://www.w3.org/1999/xlink">
    <title>Icon_Futsal_40</title>
    <g id="控件" stroke="none" stroke-width="1" fill="none" fill-rule="evenodd">
        <g id="Icon_Futsal_40">
            <rect id="蒙版" x="0" y="0" width="40" height="40"></rect>
            <path d="M20.5355339,29.9642136 C21.3165825,30.7452621 21.3165825,32.0115921 20.5355339,32.7926407 L14.1715729,39.1566017 C13.3905243,39.9376503 12.1241943,39.9376503 11.3431458,39.1566017 C10.5620972,38.3755531 10.5620972,37.1092232 11.3431458,36.3281746 L17.7071068,29.9642136 C18.4881554,29.183165 19.7544853,29.183165 20.5355339,29.9642136 Z M15.5355339,26.4644661 C16.3165825,27.2455147 16.3165825,28.5118446 15.5355339,29.2928932 L12,32.8284271 C11.2189514,33.6094757 9.95262146,33.6094757 9.17157288,32.8284271 C8.39052429,32.0473785 8.39052429,30.7810486 9.17157288,30 L12.7071068,26.4644661 C13.4881554,25.6834175 14.7544853,25.6834175 15.5355339,26.4644661 Z M34,6 C36.209139,6 38,7.790861 38,10 L38,29 C38,30.1045695 37.1045695,31 36,31 C34.8954305,31 34,30.1045695 34,29 L34,10 L6,10 L6,29 C6,30.1045695 5.1045695,31 4,31 C2.8954305,31 2,30.1045695 2,29 L2,10 C2,7.790861 3.790861,6 6,6 L34,6 Z M24,12 C28.418278,12 32,15.581722 32,20 C32,24.418278 28.418278,28 24,28 C19.581722,28 16,24.418278 16,20 C16,15.581722 19.581722,12 24,12 Z M24.8197298,16.0840715 L24.778152,16.1771632 C24.5307283,16.6653755 24.0241119,17 23.4393398,17 C22.9515947,17 22.5182213,16.7672067 22.2442672,16.4066676 C21.6291439,16.7060879 21.1033776,17.1595753 20.715547,17.7163204 C20.9393078,18.0768985 21.0070836,18.5290827 20.8659246,18.9635255 C20.7236499,19.401402 20.3990673,19.7291015 20.0035136,19.8898951 C20.0005157,19.9251436 20,19.9625116 20,20 C20,20.8185377 20.245863,21.5796511 20.6677681,22.2135191 C21.1686975,21.9135894 21.819767,21.9222946 22.3210177,22.2864745 C22.8252946,22.6528531 23.0342577,23.2746216 22.8994017,23.8455298 C23.2482721,23.9464181 23.6178787,24 24,24 C24.3405392,24 24.6711392,23.9574451 24.9867722,23.8773629 C24.836708,23.2979714 25.0439525,22.6597063 25.5576619,22.2864745 C26.0876211,21.9014367 26.7850517,21.9137583 27.2944895,22.2671393 C27.7395645,21.6240644 28,20.8424462 28,20 L27.9973788,19.933543 C27.5472071,19.7943291 27.1694346,19.4457356 27.0127551,18.9635255 C26.8597976,18.4927709 26.9521612,18.0011853 27.219355,17.627115 C26.6469913,16.8500812 25.7990332,16.2880278 24.8197298,16.0840715 Z M24,18 C25.1045695,18 26,18.8954305 26,20 C26,21.1045695 25.1045695,22 24,22 C22.8954305,22 22,21.1045695 22,20 C22,18.8954305 22.8954305,18 24,18 Z" id="形状结合" fill="#292A33"></path>
        </g>
    </g>
</svg>