<?xml version="1.0" encoding="UTF-8"?>
<svg width="40px" height="40px" viewBox="0 0 40 40" version="1.1" xmlns="http://www.w3.org/2000/svg" xmlns:xlink="http://www.w3.org/1999/xlink">
    <title>Icon_Outrights_40</title>
    <g id="控件" stroke="none" stroke-width="1" fill="none" fill-rule="evenodd">
        <g id="Icon_Outrights_40">
            <rect id="蒙版" x="0" y="0" width="40" height="40"></rect>
            <g id="编组" transform="translate(0.000000, 1.000000)" fill="#292A33" fill-rule="nonzero">
                <path d="M34.0045992,0 C37.3191687,0 40.0045992,2.6854305 40.0045992,6 C40.0045992,7.72164767 39.1154174,10.1721172 37.591858,12.0073584 L35.6359951,14.3026318 L35.1628148,14.8690072 C35.0146341,15.0486713 34.875265,15.2201688 34.7425048,15.3863828 L34.5480458,15.6321016 C33.3551977,17.1539827 32.7304829,18.2825414 32.7217681,18.7490167 C32.7009265,19.8645925 32.9725279,20.508242 33.5463156,20.9160812 L33.6651052,20.9945749 C34.6061453,21.5729496 34.9001437,22.8046787 34.321769,23.7457188 C33.7433942,24.6867589 32.5116651,24.9807572 31.5706251,24.4023825 C31.1027506,24.1148211 30.6922629,23.7801757 30.3393273,23.402453 C29.1818715,26.3265846 27.6824343,28.7345763 25.9224659,30.4071833 C28.5077121,31.7481074 30.3839798,33.9617122 30.8760397,36.6391765 C31.1018613,37.8679481 30.1583318,39.000679 28.908982,39.000679 L11.091018,39.000679 C9.84166815,39.000679 8.89813872,37.8679481 9.12396031,36.6391765 C9.61602022,33.9617122 11.4922879,31.7481074 14.0774535,30.4050147 C12.3883687,28.8005897 10.9392484,26.5184672 9.80023677,23.7524522 C9.41894689,24.1916503 8.96316779,24.5771336 8.4339741,24.9023825 C7.49293401,25.4807572 6.26120493,25.1867589 5.6828302,24.2457188 C5.10445547,23.3046787 5.39845383,22.0729496 6.33949392,21.4945749 L6.4582835,21.4160812 C7.03207124,21.008242 7.30367266,20.3645925 7.28283109,19.2490167 C7.27411623,18.7825414 6.64940143,17.6539827 5.45655331,16.1321016 L5.26209433,15.8863828 C5.12933414,15.7201688 4.98996507,15.5486713 4.8417843,15.3690072 L4.36860408,14.8026318 L2.41274119,12.5073584 C0.889181771,10.6721172 0,8.22164767 0,6.5 C0,3.1854305 2.6854305,0.5 6,0.5 C7.53232097,0.5 8.96754837,1.07954354 10.0541033,2.07572154 C10.3640487,2.02517244 10.680441,2 11,2 L29,2 C29.1720831,2 29.343248,2.00729939 29.5131228,2.02175089 C30.6332817,0.754945818 32.2557007,0 34.0045992,0 Z M20,33 C17.7277848,33 15.731596,33.7881441 14.4586501,34.9700788 L14.427018,35 L25.572018,35 L25.5413499,34.9700788 C24.3214434,33.8373914 22.4373087,33.0663623 20.2825569,33.0040764 L20,33 Z M28.955,6 L11.044,6 L11.0310686,6.29440772 C11.0207334,6.57695474 11.0129662,6.86043224 11.0077829,7.14473326 L11,8 C11,19.7340407 15.4315457,29 20,29 C24.5684543,29 29,19.7340407 29,8 C29,7.42876627 28.9896183,6.86013904 28.968987,6.29492991 L28.955,6 Z M20,10 C21.1045695,10 22,10.8954305 22,12 L22,18 C22,19.1045695 21.1045695,20 20,20 C18.8954305,20 18,19.1045695 18,18 L18,12 C18,10.8954305 18.8954305,10 20,10 Z M6,4.5 C4.8945695,4.5 4,5.3945695 4,6.5 C4,6.7679731 4.10834189,7.30629258 4.31761729,7.8830284 C4.58694239,8.6252534 4.98429009,9.34271287 5.49041128,9.95237367 L7.14974665,11.9011012 C7.05090352,10.6281975 7,9.32510076 7,8 C7,6.93346315 7.03336056,5.87531271 7.0994586,4.83001433 C6.78160466,4.61816891 6.40153157,4.5 6,4.5 Z M34.0045992,4 C33.5877593,4 33.1940453,4.12735098 32.8665925,4.35404527 L32.8657059,4.3170325 C32.9548841,5.52981355 33,6.75969957 33,8 C33,9.13799011 32.9624572,10.2597516 32.8892487,11.3601011 L34.5141879,9.45237367 C35.0203091,8.84271287 35.4176568,8.1252534 35.6869819,7.3830284 C35.8962573,6.80629258 36.0045992,6.2679731 36.0045992,6 C36.0045992,4.8945695 35.1100297,4 34.0045992,4 Z" id="形状结合"></path>
            </g>
        </g>
    </g>
</svg>