<?xml version="1.0" encoding="UTF-8"?>
<svg width="40px" height="40px" viewBox="0 0 40 40" version="1.1" xmlns="http://www.w3.org/2000/svg" xmlns:xlink="http://www.w3.org/1999/xlink">
    <title>Icon_V-Tennis_40</title>
    <g id="Icon_V-Tennis_40" stroke="none" fill="none" fill-rule="evenodd">
        <g id="Icon_Tennis_40" stroke-width="1" fill="#292A33">
            <path d="M20,2 C29.9411255,2 38,10.0588745 38,20 L36.5355977,20 L36.2782106,20.0051515 C34.7493114,20.0664105 33.3200774,20.6712251 32.2237049,21.6703887 L32,21.886 L31.9779073,21.8623167 C30.7992549,20.6903519 29.1860065,20 27.4644023,20 L26.7458094,19.9999112 C28.900633,18.8860001 31.3092668,18.1946307 33.8621135,18.035384 C33.0407791,12.1761589 28.5903339,7.47998814 22.8557902,6.29149438 L22.8133129,6.60201244 C21.6056437,14.9426857 14.6788945,21.4318274 6.13788645,21.964616 C6.95922087,27.8238411 11.4096661,32.5200119 17.1442098,33.7085056 C17.5591142,30.4453555 18.8474122,27.4549912 20.7673455,24.9791349 C20.8244052,25.4150235 20.9490037,25.8488597 21.1452456,26.2675091 L22.6310156,29.4359951 C21.8952427,30.8195784 21.3848247,32.341252 21.1487201,33.9520576 C22.2877187,33.8597454 23.3881476,33.6310926 24.4336762,33.282442 L26.1408353,36.9253233 C24.2245038,37.6207562 22.1565405,38 20,38 C10.0588745,38 2,29.9411255 2,20 C2,10.0588745 10.0588745,2 20,2 Z M18.8512492,6.04815195 L18.7597556,6.05418367 C12.288852,6.62219746 7.08085736,11.5924838 6.14871376,17.9521008 C12.6624788,17.4240568 17.9146646,12.4372543 18.8512492,6.04815195 Z" id="形状结合"></path>
        </g>
        <path d="M25.1292649,24 L27.4644023,24 C28.4005245,24 29.2512151,24.5442994 29.6435048,25.3942604 L32,30.5 L32,30.5 L34.3564952,25.3942604 C34.7487849,24.5442994 35.5994755,24 36.5355977,24 L38.8707351,24 C39.091649,24 39.2707351,24.1790861 39.2707351,24.4 C39.2707351,24.45868 39.2578244,24.5166413 39.2329186,24.5697736 L33.4487343,36.9093668 C33.0736809,37.7094807 32.1210197,38.0540603 31.3209058,37.6790069 C30.9823001,37.5202855 30.7099871,37.2479725 30.5512657,36.9093668 L24.7670814,24.5697736 C24.673318,24.3697451 24.7594629,24.1315798 24.9594914,24.0378164 C25.0126237,24.0129107 25.070585,24 25.1292649,24 Z" id="蒙版" fill="#292A33"></path>
    </g>
</svg>