<?xml version="1.0" encoding="UTF-8"?>
<svg width="40px" height="40px" viewBox="0 0 40 40" version="1.1" xmlns="http://www.w3.org/2000/svg" xmlns:xlink="http://www.w3.org/1999/xlink">
    <title>Icon_Snooker_40</title>
    <g id="控件" stroke="none" stroke-width="1" fill="none" fill-rule="evenodd">
        <g id="合并形状" fill="#292A33">
            <path d="M23.5777088,1.73312629 C25.125928,2.5072359 26.3813079,3.76261584 27.1554175,5.31083506 L37.2111456,25.4222912 C39.1870596,29.3741192 37.5852648,34.1795035 33.6334369,36.1554175 C32.5225934,36.7108393 31.2976889,37 30.0557281,37 L9.94427191,37 C5.52599391,37 1.94427191,33.418278 1.94427191,29 C1.94427191,27.7580392 2.23343264,26.5331347 2.78885438,25.4222912 L12.8445825,5.31083506 C14.8204965,1.35900708 19.6258808,-0.242787698 23.5777088,1.73312629 Z M16.4222912,7.09541753 L6.36442719,27.2111456 C6.08671632,27.7665674 5.94213595,28.3790196 5.94213595,29 C5.94213595,31.209139 7.73299696,33 9.94213595,33 L30.057864,33 C30.6788444,33 31.2912967,32.8554196 31.8467184,32.5777088 C33.8226324,31.5897518 34.6235298,29.1870596 33.6355728,27.2111456 L23.5777088,7.09541753 C23.190654,6.32130792 22.562964,5.69361795 21.7888544,5.30656315 C19.8129404,4.31860615 17.4102482,5.11950354 16.4222912,7.09541753 Z M20,25 C21.6568542,25 23,26.3431458 23,28 C23,29.6568542 21.6568542,31 20,31 C18.3431458,31 17,29.6568542 17,28 C17,26.3431458 18.3431458,25 20,25 Z M12,25 C13.6568542,25 15,26.3431458 15,28 C15,29.6568542 13.6568542,31 12,31 C10.3431458,31 9,29.6568542 9,28 C9,26.3431458 10.3431458,25 12,25 Z M28,25 C29.6568542,25 31,26.3431458 31,28 C31,29.6568542 29.6568542,31 28,31 C26.3431458,31 25,29.6568542 25,28 C25,26.3431458 26.3431458,25 28,25 Z M16,17 C17.6568542,17 19,18.3431458 19,20 C19,21.6568542 17.6568542,23 16,23 C14.3431458,23 13,21.6568542 13,20 C13,18.3431458 14.3431458,17 16,17 Z M24,17 C25.6568542,17 27,18.3431458 27,20 C27,21.6568542 25.6568542,23 24,23 C22.3431458,23 21,21.6568542 21,20 C21,18.3431458 22.3431458,17 24,17 Z M20,9 C21.6568542,9 23,10.3431458 23,12 C23,13.6568542 21.6568542,15 20,15 C18.3431458,15 17,13.6568542 17,12 C17,10.3431458 18.3431458,9 20,9 Z"></path>
        </g>
    </g>
</svg>