<?xml version="1.0" encoding="UTF-8"?>
<svg width="40px" height="40px" viewBox="0 0 40 40" version="1.1" xmlns="http://www.w3.org/2000/svg" xmlns:xlink="http://www.w3.org/1999/xlink">
    <title>Icon_Pick12_40</title>
    <g id="Icon_Pick12_40" stroke="none" fill="none" fill-rule="evenodd" stroke-width="1">
        <g id="Icon_Outrights_40">
            <rect id="蒙版" x="0" y="0" width="40" height="40"></rect>
            <path d="M25,14 C27.209139,14 29,15.790861 29,18 L29,21 L35,21 C37.209139,21 39,22.790861 39,25 L39,35 C39,37.209139 37.209139,39 35,39 L5,39 C2.790861,39 1,37.209139 1,35 L1,25 C1,22.790861 2.790861,21 5,21 L11,21 L11,18 C11,15.790861 12.790861,14 15,14 L25,14 Z M25,18 L15,18 L15,23 C15,24.1045695 14.1045695,25 13,25 L5,25 L5,35 L35,35 L35,25 L27,25 C25.8954305,25 25,24.1045695 25,23 L25,18 Z M24.6421356,26.1715729 C25.4231842,26.9526215 25.4231842,28.2189514 24.6421356,29 L20.6923882,32.9497475 C19.5208153,34.1213203 17.6213203,34.1213203 16.4497475,32.9497475 L13.9142136,30.4142136 C13.133165,29.633165 13.133165,28.366835 13.9142136,27.5857864 C14.653993,26.846007 15.8292208,26.8070713 16.6148369,27.4689792 L16.742024,27.5857864 L18.5703607,29.4149207 L21.8137085,26.1715729 C22.5947571,25.3905243 23.861087,25.3905243 24.6421356,26.1715729 Z M5.00032922,14 C5.19018951,14 5.35680161,14.1089441 5.4381703,14.2824477 L6.10074397,15.6825814 L7.584754,15.9085395 C7.76686489,15.9367843 7.91797819,16.0699382 7.97609868,16.2555467 C8.03421918,16.4411552 7.98384808,16.6388686 7.85210829,16.7760575 L6.77881644,17.8654987 L7.03454663,19.4068562 C7.06554423,19.6005346 6.99192493,19.7901781 6.84081164,19.9031572 C6.68969834,20.0161362 6.49596335,20.0282411 6.32935126,19.9394719 L5.00032922,19.2131777 L3.67130719,19.9394719 C3.60156259,19.9798215 3.52406859,20 3.4465746,20 C3.30274941,20.000563 3.16607345,19.934746 3.07333776,19.820262 C2.98060207,19.7057781 2.9413369,19.5543926 2.96611182,19.4068562 L3.22184201,17.8654987 L2.14855016,16.7760575 C2.01293566,16.6388686 1.96643927,16.4411552 2.02455976,16.2555467 C2.08268026,16.0699382 2.22991885,15.9367843 2.41590444,15.9085395 L3.89991447,15.6825814 L4.56248814,14.2824477 C4.64773154,14.1089441 4.81046893,14 5.00032922,14 Z M35.0003292,14 C35.1901895,14 35.3568016,14.1089441 35.4381703,14.2824477 L36.100744,15.6825814 L37.584754,15.9085395 C37.7668649,15.9367843 37.9179782,16.0699382 37.9760987,16.2555467 C38.0342192,16.4411552 37.9838481,16.6388686 37.8521083,16.7760575 L36.7788164,17.8654987 L37.0345466,19.4068562 C37.0655442,19.6005346 36.9919249,19.7901781 36.8408116,19.9031572 C36.6896983,20.0161362 36.4959634,20.0282411 36.3293513,19.9394719 L35.0003292,19.2131777 L33.6713072,19.9394719 C33.6015626,19.9798215 33.5240686,20 33.4465746,20 C33.3027494,20.000563 33.1660735,19.934746 33.0733378,19.820262 C32.9806021,19.7057781 32.9413369,19.5543926 32.9661118,19.4068562 L33.221842,17.8654987 L32.1485502,16.7760575 C32.0129357,16.6388686 31.9664393,16.4411552 32.0245598,16.2555467 C32.0826803,16.0699382 32.2299189,15.9367843 32.4159044,15.9085395 L33.8999145,15.6825814 L34.5624881,14.2824477 C34.6477315,14.1089441 34.8104689,14 35.0003292,14 Z M16.5015549,1 C17.0538396,1 17.5015549,1.44771525 17.5015549,2 L17.5015549,12.002243 C17.5015549,12.5545278 17.0538396,13.002243 16.5015549,13.002243 L15.0217114,13.002243 C14.4694266,13.002243 14.0217114,12.5545278 14.0217114,12.002243 L14.0217114,4.98383718 L13.5,4.98383718 C12.9477153,4.98383718 12.5,4.53612193 12.5,3.98383718 L12.5,2.65972674 C12.5,2.28932223 12.7047429,1.94925816 13.0320994,1.77594566 L14.2782058,1.11621892 C14.4223603,1.03989915 14.5829954,1 14.7461065,1 L16.5015549,1 Z M22.5342996,1 C25.5627276,1 26.5024872,3.04242467 26.5024872,5.02345821 C26.5024872,6.96159302 25.1255031,8.27943672 24.3211983,8.9472854 L23.9509998,9.24692565 C23.5321587,9.58611134 23.245884,9.83671396 23.0921757,9.99873352 L25.5024872,9.99873352 C26.0547719,9.99873352 26.5024872,10.4464488 26.5024872,10.9987335 L26.5024872,12.002243 C26.5024872,12.5545278 26.0547719,13.002243 25.5024872,13.002243 L19.5022996,13.0012468 C18.9504037,13.0012468 18.5028496,12.5541382 18.5023001,12.0022425 L18.5,10.6929111 C18.655497,9.90250236 19.0105788,9.21752023 19.5652455,8.63796468 C20.3972455,7.76863134 21.7317586,6.99759947 22.4173574,6.4187445 C23.1029562,5.83988954 23.2919587,5.6293023 23.3008817,5.02345821 C23.3098048,4.41761413 23.1322801,3.99873605 22.5342996,3.99873605 C21.979032,3.99873605 21.7457144,4.44752751 21.7152163,4.91535557 L21.7117244,5.02345821 C21.7117244,5.43245485 21.3801671,5.76401213 20.9711704,5.76401213 L19.2428339,5.76399252 C18.8679302,5.76399252 18.5580954,5.48539968 18.5090598,5.12394433 L18.5022996,5.02345821 C18.5022996,2.80227044 19.5058716,1 22.5342996,1 Z M8.50021948,8.5 C8.62679301,8.5 8.73786774,8.57262941 8.79211353,8.68829847 L9.23382931,9.62172091 L10.2231693,9.77235969 C10.3445766,9.79118954 10.4453188,9.87995882 10.4840658,10.0036978 C10.5228128,10.1274368 10.4892321,10.2592457 10.4014055,10.350705 L9.68587763,11.0769991 L9.85636442,12.1045708 C9.87702948,12.2336897 9.82794995,12.3601187 9.72720776,12.4354381 C9.62646556,12.5107575 9.4973089,12.5188274 9.38623417,12.4596479 L8.50021948,11.9754518 L7.61420479,12.4596479 C7.56770839,12.4865477 7.51604573,12.5 7.46438306,12.5 C7.36849961,12.5003754 7.2773823,12.4564973 7.21555851,12.3801747 C7.15373471,12.3038521 7.12755793,12.2029284 7.14407455,12.1045708 L7.31456134,11.0769991 L6.59903344,10.350705 C6.50862378,10.2592457 6.47762618,10.1274368 6.51637318,10.0036978 C6.55512017,9.87995882 6.65327924,9.79118954 6.77726963,9.77235969 L7.76660965,9.62172091 L8.20832543,8.68829847 C8.26515436,8.57262941 8.37364595,8.5 8.50021948,8.5 Z M31.5002195,8.5 C31.626793,8.5 31.7378677,8.57262941 31.7921135,8.68829847 L32.2338293,9.62172091 L33.2231693,9.77235969 C33.3445766,9.79118954 33.4453188,9.87995882 33.4840658,10.0036978 C33.5228128,10.1274368 33.4892321,10.2592457 33.4014055,10.350705 L32.6858776,11.0769991 L32.8563644,12.1045708 C32.8770295,12.2336897 32.82795,12.3601187 32.7272078,12.4354381 C32.6264656,12.5107575 32.4973089,12.5188274 32.3862342,12.4596479 L31.5002195,11.9754518 L30.6142048,12.4596479 C30.5677084,12.4865477 30.5160457,12.5 30.4643831,12.5 C30.3684996,12.5003754 30.2773823,12.4564973 30.2155585,12.3801747 C30.1537347,12.3038521 30.1275579,12.2029284 30.1440745,12.1045708 L30.3145613,11.0769991 L29.5990334,10.350705 C29.5086238,10.2592457 29.4776262,10.1274368 29.5163732,10.0036978 C29.5551202,9.87995882 29.6532792,9.79118954 29.7772696,9.77235969 L30.7666096,9.62172091 L31.2083254,8.68829847 C31.2651544,8.57262941 31.373646,8.5 31.5002195,8.5 Z" id="形状" fill="#292A33" fill-rule="nonzero"></path>
        </g>
    </g>
</svg>