<?xml version="1.0" encoding="UTF-8"?>
<svg width="40px" height="40px" viewBox="0 0 40 40" version="1.1" xmlns="http://www.w3.org/2000/svg" xmlns:xlink="http://www.w3.org/1999/xlink">
    <title>Icon_Lucky777_40</title>
    <g id="Icon_Lucky777_40" stroke="none" stroke-width="1" fill="none" fill-rule="evenodd">
        <g fill="#292A33" fill-rule="nonzero" id="形状结合">
            <path d="M19.5,2.6 C22.7,2.6 25.4,3.6 27,4.2 C27.3,4.4 27.8,4.5 28,4.6 C28.6,4.5 29,4.3 29.1,4.2 C29.3,3.9 29.5,3.9 29.8,3.7 C30.5,3.4 31.3,3.2 32,3.2 C33.9,3.2 35.6,4.4 36.4,6.3 C37.2,8.2 37.2,10.9 35.4,12.7 C34.4416048,13.6583952 33.457906,15.0047791 32.5272903,16.6877107 C33.5978462,17.0357093 34.4508344,17.5863103 35.03,18 C35.23,17.9 35.53,17.9 35.73,17.9 C37.63,17.9 39.33,19.2 39.83,21.1 C40.33,22.9 39.73,25.3 37.73,26.5 C36.73,27.1 34.73,29.4 33.43,33.1 C32.83,34.7 31.33,35.8 29.63,35.8 C29.33,35.8 28.93,35.8 28.63,35.7 L28.63,35.7 L27.5710129,35.4285072 C27.0096672,36.9470987 25.5035431,38 23.8,38 L23.8,38 L14.1,38 C13,38 12,37.5 11.2,36.7 C10.9352381,36.397415 10.7133939,36.0519123 10.5452892,35.6797247 L10.08,35.8 C9.78,35.9 9.38,35.9 9.08,35.9 C8.38,35.9 7.58,35.7 6.98,35.3 C5.98,34.7 5.38,33.7 5.18,32.6 C4.98,31.6 4.88,30.6 4.88,29.7 C3.08,29.4 1.68,28.1 1.18,26.4 L1.18,26.4 L0.18,23.2 C-0.52,20.7 0.98,18.2 3.38,17.6 C3.68,17.6 3.88,17.5 4.18,17.5 L4.18,17.5 L4.78,17.5 L4.78,17.5 L5.01360768,17.3635117 C5.03121093,17.3530549 5.04882813,17.3425633 5.06646243,17.332043 C5.02275932,17.060068 5,16.7824048 5,16.5 L5,16.5 L5,8.6 C5,5.7 7.4,3.3 10.2,3.4 C10.5,3.4 10.8,3.4 11.1,3.5 L11.1,3.5 L11.3,3.5 C11.4,3.5 11.6,3.6 11.7,3.6 C12.3,3.7 12.7,3.9 13.1,4.1 C13.6,4 14.4,3.8 14.9,3.6 C16.7,3 18.2,2.6 19.5,2.6 Z M9,16.7 C9,17.4 9.6,17.9 10.3,17.9 C11,17.9 11.6,17.3 11.6,16.6 L11.6,16.6 L11.6,16.4 C11.6,16.0210084 11.7543182,15.6538874 11.9975165,15.3231764 C12.4601864,14.6940188 13.2445378,14.1966387 13.9,14 L13.9,14 L14.0640138,13.9551394 C14.4727526,13.8657509 14.9723538,13.9099835 15.5628174,14.0026228 C16.2959606,14.1270761 17.1521418,14.3322958 18.1,14.4 C18.5,14.5 19.2,14.5 20,14.5 C21.6,14.5 23.3,14.4 23.3,14.4 C18.6,19.4 15,25.7 14.3,34.1 L14.3,34.1 L24,34.1 C24.2666667,30.4666667 24.8666667,27.0444444 25.7037037,23.9407407 L25.7871151,23.636547 L25.7871151,23.636547 C26.1788337,22.2188874 26.6201138,20.869953 27.1014562,19.5994951 L27.2082854,19.3205121 C27.6545485,18.1673886 28.1338496,17.0807558 28.6390004,16.0686311 C29.9049083,13.5339273 31.3278835,11.4721165 32.8,10 C32.8018228,9.99817722 32.8036363,9.99634059 32.8054407,9.99449021 C33.1241489,9.71513088 33.1686147,9.03567556 33.026179,8.4335274 C32.9026647,7.82967704 32.6017778,7.3 32.2,7.3 C32.153,7.3 32.106,7.32209 32.059,7.3455054 L31.9954953,7.36081367 L31.9954953,7.36081367 L31.9,7.4 C31.9,7.4 30.4,8.7 27.9,8.7 C26.5,8.7 23.5,6.6 19.5,6.6 L19.5,6.6 L19.2822314,6.60900639 C17.6681818,6.73305785 14.2318182,8.09545455 12.8,8 C12.1,8 11.3,7.5 10.6,7.3 L10.6,7.3 L10.3,7.3 C9.6,7.3 9,7.9 9,8.6 L9,8.6 Z M30.8333057,20.3013284 C30.4502058,21.2651038 30.0889953,22.2934175 29.7573505,23.3812318 C30.3959612,23.5914903 31.63,23.9 31.63,23.9 C30.7210153,24.4453908 29.8649107,25.0833221 29.0857201,25.8330205 C28.6590398,27.5928675 28.3103055,29.4788225 28.0668933,31.4737943 L29.73,31.9 C31.13,27.5 33.63,24.3 35.83,23.1 C36.13,22.9 36.23,21.9 35.83,21.9 L35.83,21.9 L35.73,21.9 C35.73,21.9 35.33,22.1 34.73,22.1 C34.53,22.1 34.33,22.1 34.03,22 C33.43,21.9 32.43,20.7 30.83,20.3 Z M13.5666959,20.6981675 L13.3868716,20.836841 C12.5356401,21.4491349 11.4470588,21.8 10.3,21.8 C9.14738024,21.8 8.07374575,21.4208707 7.19839032,20.7819058 C6.64146079,21.1272189 6.03689472,21.5405175 5.68,21.6 L5.68,21.6 L5.48,21.6 C5.18,21.6 4.88,21.5 4.68,21.5 L4.68,21.5 L4.58,21.5 C4.28,21.6 4.08,21.9 4.18,22.2 L4.18,22.2 L5.08,25.4 C5.08,25.6 5.38,25.8 5.58,25.8 L5.58,25.8 L5.68,25.8 C5.98,25.7 6.18,25.4 6.08,25.1 L6.08,25.1 L6.08,25 C5.98,24.6 6.38,24 6.78,23.9 C7.08,23.7 7.68,23.7 8.48,23.6 C8.98,23.5 10.58,23 10.58,23 C9.18,25.5 8.48,28.4 9.08,31.8 L9.08,31.8 L10.4572075,31.4458604 C10.8971139,28.4223671 11.7086543,25.5227517 12.8918287,22.7470143 C13.0635255,21.9797849 13.2910897,21.2912772 13.5666959,20.6981675 Z"></path>
        </g>
    </g>
</svg>