<?xml version="1.0" encoding="UTF-8"?>
<svg width="40px" height="40px" viewBox="0 0 40 40" version="1.1" xmlns="http://www.w3.org/2000/svg" xmlns:xlink="http://www.w3.org/1999/xlink">
    <title>Icon_PWA_40</title>
    <g id="控件" stroke="none" stroke-width="1" fill="none" fill-rule="evenodd">
        <g id="Icon_PWA_40" fill="#292A33">
            <g id="形状结合">
                <path d="M28,4 C32.418278,4 36,7.581722 36,12 L36,28 C36,32.418278 32.418278,36 28,36 L12,36 C7.581722,36 4,32.418278 4,28 L4,12 C4,7.581722 7.581722,4 12,4 L28,4 Z M28,8 L12,8 C9.85780461,8 8.10892112,9.68396847 8.00489531,11.8003597 L8,12 L8,28 C8,30.1421954 9.68396847,31.8910789 11.8003597,31.9951047 L12,32 L28,32 C30.1421954,32 31.8910789,30.3160315 31.9951047,28.1996403 L32,28 L32,12 C32,9.790861 30.209139,8 28,8 Z M20,12 C21.1045695,12 22,12.8954305 22,14 L22,18 L26,18 C27.1045695,18 28,18.8954305 28,20 C28,21.1045695 27.1045695,22 26,22 L22,22 L22,26 C22,27.1045695 21.1045695,28 20,28 C18.8954305,28 18,27.1045695 18,26 L18,22 L14,22 C12.8954305,22 12,21.1045695 12,20 C12,18.8954305 12.8954305,18 14,18 L18,18 L18,14 C18,12.8954305 18.8954305,12 20,12 Z"></path>
            </g>
        </g>
    </g>
</svg>