<?xml version="1.0" encoding="UTF-8"?>
<svg width="40px" height="40px" viewBox="0 0 40 40" version="1.1" xmlns="http://www.w3.org/2000/svg" xmlns:xlink="http://www.w3.org/1999/xlink">
    <title>Icon_Promotions_40</title>
    <g id="控件" stroke="none" stroke-width="1" fill="none" fill-rule="evenodd">
        <g id="Icon_Promotions_40" fill="#292A33">
            <g id="形状结合">
                <path d="M16.4142136,4.92893219 C17.3289416,5.84366024 18.7486793,7.84236458 20.0003213,10.0787099 C21.2513207,7.84236458 22.6710584,5.84366024 23.5857864,4.92893219 C25.9289322,2.58578644 29.7279221,2.58578644 32.0710678,4.92893219 C34.0158008,6.87366514 34.3464701,9.82124863 33.0630759,12.1070176 C35.4194039,13.4990404 37,16.0649362 37,19 L37,29 C37,33.418278 33.418278,37 29,37 L11,37 C6.581722,37 3,33.418278 3,29 L3,19 C3,16.0649362 4.58059605,13.4990404 6.93703602,12.1070647 C5.65352988,9.82124863 5.98419924,6.87366514 7.92893219,4.92893219 C10.2720779,2.58578644 14.0710678,2.58578644 16.4142136,4.92893219 Z M18,25.9995729 L7,25.9995729 L7,29 C7,31.1421954 8.68396847,32.8910789 10.8003597,32.9951047 L11,33 L18,33 L18,25.9995729 Z M33,25.9995729 L22,25.9995729 L22,33 L29,33 C31.1421954,33 32.8910789,31.3160315 32.9951047,29.1996403 L33,29 L33,25.9995729 Z M18,15 L11,15 C8.85780461,15 7.10892112,16.6839685 7.00489531,18.8003597 L7,19 L7,21.9995729 L18,21.9995729 L18,15 Z M29,15 L22,15 L22,21.9995729 L33,21.9995729 L33,19 C33,16.790861 31.209139,15 29,15 Z M10.7573593,7.75735931 C9.97631073,8.5384079 9.97631073,9.80473785 10.7573593,10.5857864 C10.8678139,10.696241 11.0270846,10.836383 11.2280925,10.9992495 L15.9056473,10.9989817 C14.9530143,9.43165635 14.0316143,8.20318713 13.5857864,7.75735931 C12.8047379,6.97631073 11.5384079,6.97631073 10.7573593,7.75735931 Z M26.4142136,7.75735931 C25.9683857,8.20318713 25.0469857,9.43165635 24.094028,10.9989532 L28.7719075,10.9992495 C28.9729154,10.836383 29.1321861,10.696241 29.2426407,10.5857864 C30.0236893,9.80473785 30.0236893,8.5384079 29.2426407,7.75735931 C28.4615921,6.97631073 27.1952621,6.97631073 26.4142136,7.75735931 Z"></path>
            </g>
        </g>
    </g>
</svg>