<?xml version="1.0" encoding="UTF-8"?>
<svg width="40px" height="40px" viewBox="0 0 40 40" version="1.1" xmlns="http://www.w3.org/2000/svg" xmlns:xlink="http://www.w3.org/1999/xlink">
    <title>Icon_FreeBets_40</title>
    <g id="控件" stroke="none" stroke-width="1" fill="none" fill-rule="evenodd">
        <g id="Icon_FreeBets_40" fill="#292A33">
            <g transform="translate(-8.000000, -8.000000)" id="形状结合">
                <path d="M40.0613005,12.4681547 C44.4795785,12.4681547 48.0613005,16.0498767 48.0613005,20.4681547 L48.0613005,31.4681547 C48.0613005,35.8864327 44.4795785,39.4681547 40.0613005,39.4681547 L17.375009,39.4681547 C15.2532771,39.4681547 13.2184458,38.6253 11.7181547,37.125009 L6.21815472,31.625009 C3.09396039,28.5008146 3.09396039,23.4354948 6.21815472,20.3113005 L11.7181547,14.8113005 C13.2184458,13.3110094 15.2532771,12.4681547 17.375009,12.4681547 L40.0613005,12.4681547 Z M40.0613005,16.4681547 L17.3781547,16.4681547 C16.3930649,16.4681547 15.4454399,16.8315283 14.7144824,17.4840473 L14.5497276,17.6397276 L9.0497276,23.1397276 C7.53970034,24.6497549 7.4893661,27.0667191 8.89872487,28.6372088 L9.0497276,28.7965818 L14.5497276,34.2965818 C15.2462913,34.9931455 16.1733073,35.4062737 17.1515729,35.4617381 L17.3781547,35.4681547 L40.0613005,35.4681547 C42.2034959,35.4681547 43.9523794,33.7841863 44.0564052,31.6677951 L44.0613005,31.4681547 L44.0613005,20.4681547 C44.0613005,18.2590157 42.2704395,16.4681547 40.0613005,16.4681547 Z M17.5613005,20.4726407 C18.3897276,20.4726407 19.0613005,21.1442136 19.0613005,21.9726407 C19.0613005,22.8010678 18.3897276,23.4726407 17.5613005,23.4726407 L16.0613005,23.4726407 L16.0613005,24.4726407 L17.5613005,24.4726407 C18.3897276,24.4726407 19.0613005,25.1442136 19.0613005,25.9726407 C19.0613005,26.8010678 18.3897276,27.4726407 17.5613005,27.4726407 L16.0613005,27.4726407 L16.0613005,29.9726407 C16.0613005,30.8010678 15.3897276,31.4726407 14.5613005,31.4726407 C13.7328733,31.4726407 13.0613005,30.8010678 13.0613005,29.9726407 L13.0613005,23.4726407 C13.0613005,21.8157864 14.4044462,20.4726407 16.0613005,20.4726407 L17.5613005,20.4726407 Z M24.0613005,20.4726407 C25.7181547,20.4726407 27.0613005,21.8157864 27.0613005,23.4726407 L27.0613005,24.4726407 C27.0613005,25.5652644 26.477189,26.5214615 25.6041948,27.0460033 L26.8593767,29.219755 C27.2735902,29.9371939 27.0277775,30.8545795 26.3103386,31.2687931 C25.5928996,31.6830067 24.675514,31.4371939 24.2613005,30.719755 L23.0613005,28.6426407 L23.0613005,29.9726407 C23.0613005,30.8010678 22.3897276,31.4726407 21.5613005,31.4726407 C20.7328733,31.4726407 20.0613005,30.8010678 20.0613005,29.9726407 L20.0613005,23.4726407 C20.0613005,21.8157864 21.4044462,20.4726407 23.0613005,20.4726407 L24.0613005,20.4726407 Z M32.5613005,20.4726407 C33.3897276,20.4726407 34.0613005,21.1442136 34.0613005,21.9726407 C34.0613005,22.8010678 33.3897276,23.4726407 32.5613005,23.4726407 L31.0613005,23.4726407 L31.0613005,24.4726407 L32.5613005,24.4726407 C33.3897276,24.4726407 34.0613005,25.1442136 34.0613005,25.9726407 C34.0613005,26.8010678 33.3897276,27.4726407 32.5613005,27.4726407 L31.0613005,27.4726407 L31.0613005,28.4726407 L32.5613005,28.4726407 C33.3897276,28.4726407 34.0613005,29.1442136 34.0613005,29.9726407 C34.0613005,30.8010678 33.3897276,31.4726407 32.5613005,31.4726407 L31.0613005,31.4726407 C29.4044462,31.4726407 28.0613005,30.1294949 28.0613005,28.4726407 L28.0613005,23.4726407 C28.0613005,21.8157864 29.4044462,20.4726407 31.0613005,20.4726407 L32.5613005,20.4726407 Z M39.5613005,20.4726407 C40.3897276,20.4726407 41.0613005,21.1442136 41.0613005,21.9726407 C41.0613005,22.8010678 40.3897276,23.4726407 39.5613005,23.4726407 L38.0613005,23.4726407 L38.0613005,24.4726407 L39.5613005,24.4726407 C40.3897276,24.4726407 41.0613005,25.1442136 41.0613005,25.9726407 C41.0613005,26.8010678 40.3897276,27.4726407 39.5613005,27.4726407 L38.0613005,27.4726407 L38.0613005,28.4726407 L39.5613005,28.4726407 C40.3897276,28.4726407 41.0613005,29.1442136 41.0613005,29.9726407 C41.0613005,30.8010678 40.3897276,31.4726407 39.5613005,31.4726407 L38.0613005,31.4726407 C36.4044462,31.4726407 35.0613005,30.1294949 35.0613005,28.4726407 L35.0613005,23.4726407 C35.0613005,21.8157864 36.4044462,20.4726407 38.0613005,20.4726407 L39.5613005,20.4726407 Z M24.0613005,23.4726407 L23.0613005,23.4726407 L23.0613005,24.4726407 L24.0613005,24.4726407 L24.0613005,23.4726407 Z" transform="translate(25.968155, 25.968155) rotate(45.000000) translate(-25.968155, -25.968155) "></path>
            </g>
        </g>
    </g>
</svg>