<?xml version="1.0" encoding="UTF-8"?>
<svg width="40px" height="40px" viewBox="0 0 40 40" version="1.1" xmlns="http://www.w3.org/2000/svg" xmlns:xlink="http://www.w3.org/1999/xlink">
    <title>Icon_Baseball_40</title>
    <g id="控件" stroke="none" stroke-width="1" fill="none" fill-rule="evenodd">
        <g id="Icon_Baseball_40" fill="#292A33">
            <g id="合并形状">
                <path d="M20,2 C29.9411255,2 38,10.0588745 38,20 C38,29.9411255 29.9411255,38 20,38 C10.0588745,38 2,29.9411255 2,20 C2,10.0588745 10.0588745,2 20,2 Z M20,6 C16.7038484,6 13.6737479,7.1391007 11.2818804,9.04512044 C11.8864208,9.82993155 12.4262373,10.6661709 12.8951464,11.5459339 L13.195345,11.4365745 C14.2333008,11.0587895 15.3809855,11.5939636 15.7587705,12.6319194 C16.1365555,13.6698752 15.6013813,14.8175599 14.5634255,15.195345 L14.3706801,15.2648379 C14.6117256,16.1511763 14.7867438,17.0647177 14.8901257,17.9998509 L15,18 C16.1045695,18 17,18.8954305 17,20 C17,21.1045695 16.1045695,22 15,22 L14.8900154,22.0011487 C14.7866195,22.9359344 14.6116407,23.8491428 14.3706824,24.7351705 L14.5634255,24.804655 C15.6013813,25.1824401 16.1365555,26.3301248 15.7587705,27.3680806 C15.3809855,28.4060364 14.2333008,28.9412105 13.195345,28.5634255 L12.8947231,28.4549432 C12.4259025,29.3344591 11.8862173,30.1704791 11.2832885,30.9553823 C13.6745942,32.8612174 16.7043086,34 20,34 C23.2961516,34 26.3262521,32.8608993 28.7181196,30.9548796 C28.1135792,30.1700684 27.5737627,29.3338291 27.1048536,28.4540661 L26.804655,28.5634255 C25.7666992,28.9412105 24.6190145,28.4060364 24.2412295,27.3680806 C23.8634445,26.3301248 24.3986187,25.1824401 25.4365745,24.804655 L25.6293199,24.7351621 C25.3883602,23.8491393 25.2133809,22.935933 25.1099847,22.0011481 L25,22 C23.8954305,22 23,21.1045695 23,20 C23,18.8954305 23.8954305,18 25,18 L25.1098436,18.0001263 C25.2131946,17.0651386 25.3881589,16.1517342 25.6291299,15.2655196 L25.4365745,15.195345 C24.3986187,14.8175599 23.8634445,13.6698752 24.2412295,12.6319194 C24.6190145,11.5939636 25.7666992,11.0587895 26.804655,11.4365745 L27.1048158,11.5459217 C27.5736845,10.6662001 28.1134488,9.82998929 28.7164831,9.04491494 C26.3262521,7.1391007 23.2961516,6 20,6 Z M8.50051471,12.0142021 L8.43193127,12.1121893 C6.89739273,14.3583643 6,17.0743835 6,20 C6,22.9680231 6.92359654,25.7203286 8.49906111,27.9851881 C8.71368574,27.6784471 8.91528276,27.362613 9.10422394,27.0385042 C8.28865625,26.5578206 7.90642767,25.5517799 8.24122952,24.6319194 C8.59310928,23.6651377 9.61292258,23.1345489 10.5898685,23.3716048 C10.7024937,22.9221879 10.7922643,22.462248 10.8589471,21.9948672 L11,22 C9.8954305,22 9,21.1045695 9,20 C9,18.9429605 9.82002719,18.0774485 10.8586265,18.0049193 C10.7922533,17.537603 10.7024821,17.0776359 10.5908164,16.6263023 C9.61292258,16.8654511 8.59310928,16.3348623 8.24122952,15.3680806 C7.90629035,14.4478428 8.28896993,13.4413541 9.10342004,12.9616181 C8.91597596,12.6376054 8.71424262,12.3214188 8.50051471,12.0142021 Z M31.5002427,12.0138111 L31.4193706,12.1307393 C31.235227,12.4011965 31.0603114,12.6784371 30.8950762,12.9620086 C31.7110301,13.4413541 32.0937097,14.4478428 31.7587705,15.3680806 C31.4068907,16.3348623 30.3870774,16.8654511 29.4101315,16.6283952 C29.2975241,17.0776318 29.2077503,17.5376006 29.1410638,18.0050104 L29,18 C30.1045695,18 31,18.8954305 31,20 C31,21.0570575 30.1799449,21.9225809 29.1413205,21.9950844 C29.2077215,22.462249 29.2974819,22.9221896 29.4091342,23.3734979 C30.3870774,23.1345489 31.4068907,23.6651377 31.7587705,24.6319194 C32.0935723,25.5517799 31.7113437,26.5578206 30.8975815,27.0377916 C31.0841949,27.3626495 31.28571,27.6784893 31.4991939,27.985379 C33.0764035,25.7203286 34,22.9680231 34,20 C34,17.0315397 33.0761313,14.2788605 31.5002427,12.0138111 Z"></path>
            </g>
        </g>
    </g>
</svg>