<?xml version="1.0" encoding="UTF-8"?>
<svg width="40px" height="40px" viewBox="0 0 40 40" version="1.1" xmlns="http://www.w3.org/2000/svg" xmlns:xlink="http://www.w3.org/1999/xlink">
    <title>Icon_Darts_40</title>
    <g id="控件" stroke="none" stroke-width="1" fill="none" fill-rule="evenodd">
        <g id="Icon_Darts_40" fill="#292A33">
            <g id="合并形状">
                <path d="M9,2 C13.1053755,2 16.5687404,7.49754817 17.6500392,15.0125334 C17.8527726,15.0043914 18.0602875,15 18.2727273,15 C20.7064649,15 25.5978246,15.8218616 29.0750622,17.0839141 C29.4163301,16.6015879 29.7919436,16.1327073 30.1999095,15.6851878 C32.2681212,13.4123697 34.7662536,12 36.7165501,12 C37.6776111,12 38.4925824,12.3382374 39.0748539,12.9770033 C40.405313,14.4385088 40.212266,17.1204114 38.6188456,19.944008 C40.2550493,22.8098843 40.4616618,25.5374946 39.1092893,27.0172833 C38.5238873,27.6606199 37.700568,28 36.7322025,28 C34.7610361,28 32.2357727,26.5750607 30.1425172,24.281674 C29.7461066,23.84758 29.3790477,23.3937862 29.0416593,22.9279745 C25.5686387,24.1830386 20.6991986,25 18.2727273,25 C18.0599335,25 17.8520809,24.995594 17.6492432,24.9867387 C16.5690494,32.5019613 13.1055586,38 9,38 C4.02943725,38 -1.77635684e-15,29.9411255 -1.77635684e-15,20 C-1.77635684e-15,10.0588745 4.02943725,2 9,2 Z M9,6 C6.23857625,6 4,12.2680135 4,20 C4,27.7319865 6.23857625,34 9,34 C11.2764705,34 13.1976101,29.7402132 13.8021706,23.9121346 C13.1102751,23.4316445 12.6098077,22.7890388 12.3142942,21.9749833 C12.212207,21.9915838 12.1070864,22 12,22 L10,22 C8.8954305,22 8,21.1045695 8,20 C8,18.8954305 8.8954305,18 10,18 L12,18 C12.1070864,18 12.212207,18.0084162 12.3147366,18.0246231 C12.6100755,17.2107229 13.1104372,16.5682112 13.801192,16.0885521 C13.1976101,10.2597868 11.2764705,6 9,6 Z M35.853653,16.2680969 C35.2993011,16.5319366 34.089859,17.2524872 32.9376678,18.6255798 C32.6702118,18.9304504 32.1404877,19.6430054 31.8881683,20.0310822 C32.0408668,20.2959015 32.6242679,21.0402321 32.8679047,21.3231506 C33.4316711,21.9778137 34.2077332,22.7037659 34.68927,23.0203552 C35.0103607,23.2645721 35.9013519,23.8115387 35.9013519,23.7496796 C35.8204803,23.1029816 35.0691376,21.6926727 34.0206451,19.9645386 C34.5750454,18.9717766 35.244457,17.8128571 35.4051394,17.4720819 L35.4859955,17.2923097 C35.7088761,16.7871067 35.8743298,16.2680969 35.853653,16.2680969 Z M16,20 C16,21.1116943 16.4140015,21 18.6883117,21 C20.4097187,21 25,20.0171509 25,20 C25,19.9675293 20.4097187,19 18.6883117,19 L18.2499988,18.9990271 C16.3215093,18.9917524 16,18.9714762 16,20 Z"></path>
            </g>
        </g>
    </g>
</svg>