<?xml version="1.0" encoding="UTF-8"?>
<svg width="40px" height="40px" viewBox="0 0 40 40" version="1.1" xmlns="http://www.w3.org/2000/svg" xmlns:xlink="http://www.w3.org/1999/xlink">
    <title>Icon_AmericanFootball_40</title>
    <g id="控件" stroke="none" stroke-width="1" fill="none" fill-rule="evenodd">
        <g id="Icon_AmericanFootball_40" fill="#292A33">
            <g id="Icon_Tennis_40">
                <path d="M19,3 C25.7872038,3 31.7432045,6.55880309 35.1037734,11.9121804 C35.6479103,12.8139382 35.96,13.8705229 35.96,15 C35.96,18.2383969 33.3944251,20.8775718 30.1849383,20.9958615 L29.96,21 L28,21 C25.8578046,21 24.1089211,22.6839685 24.0048953,24.8003597 L24,24.999 L34,25 C37.3137085,25 40,27.6862915 40,31 C40,34.3137085 37.3137085,37 34,37 L32,37 C27.581722,37 24,33.418278 24,29 L23.7480206,28.9997839 C22.8798688,32.3731831 19.8667273,34.8855138 16.2491793,34.9961932 L16,35 L9.2,35 C6.13542293,35 3.47331263,33.2768349 2.12972326,30.7465588 L2.00384532,30.4992045 C0.721146026,27.9421203 7.95807864e-13,25.0552765 7.95807864e-13,22 C7.95807864e-13,11.5065898 8.50658975,3 19,3 Z M34,29 L28,29 C28,31.1421954 29.6839685,32.8910789 31.8003597,32.9951047 L32,33 L34,33 C35.1045695,33 36,32.1045695 36,31 C36,29.8954305 35.1045695,29 34,29 Z M19,7 C10.7157288,7 4,13.7157288 4,22 C4,24.2611342 4.5003077,26.4054152 5.39626185,28.3281819 L5.58069695,28.7097506 L5.6273531,28.8008646 L5.72614533,28.9843892 C6.37923225,30.1252163 7.57810768,30.9135009 8.96684656,30.9933181 L9.2,31 L16,31 L16.2060394,30.9947851 C18.1850725,30.8943695 19.7845753,29.3555936 19.9799449,27.4030605 L19.9951047,27.1996403 L20,27 L20,25 L20.0038068,24.7508207 C20.1329254,20.5305874 23.5305874,17.1329254 27.7508207,17.0038068 L28,17 L29.96,17 L29.96,16.999037 L30.1092623,16.9935512 C31.1441222,16.9172021 31.96,16.0533988 31.96,14.999037 C31.96,14.6388779 31.8648005,14.3009538 31.6969948,14.0096909 C29.040945,9.79795574 24.3472213,7 19,7 Z M13,22 C14.6568542,22 16,23.3431458 16,25 C16,26.6568542 14.6568542,28 13,28 C11.3431458,28 10,26.6568542 10,25 C10,23.3431458 11.3431458,22 13,22 Z" id="形状结合"></path>
            </g>
        </g>
    </g>
</svg>